<svg width="90" height="40" viewBox="0 0 90 40" fill="none" xmlns="http://www.w3.org/2000/svg">
<path d="M9.5942 39.0765C9.38149 39.0765 9.23969 39.0765 9.02698 39.0055C8.88517 38.9344 8.74336 38.8634 8.60155 38.7923C8.45974 38.7213 8.38884 38.5792 8.31794 38.4371C8.24703 38.295 8.17612 38.1529 8.17612 38.0108C8.17612 37.8687 8.10522 37.6555 8.10522 37.5134V35.8793H8.60155V37.5134C8.60155 37.6555 8.60155 37.7266 8.60155 37.8687C8.60155 38.0108 8.67246 38.0818 8.67246 38.1529C8.74336 38.2239 8.74336 38.366 8.81427 38.4371C8.88517 38.5081 8.95607 38.5792 9.09788 38.5792C9.16878 38.6502 9.31059 38.6502 9.4524 38.6502C9.59421 38.6502 9.73601 38.6502 9.80692 38.5792C9.87782 38.5081 10.0196 38.5081 10.0905 38.4371C10.1614 38.366 10.2323 38.295 10.2323 38.1529C10.3033 38.0818 10.3032 37.9397 10.3032 37.8687C10.3032 37.7266 10.3032 37.6555 10.3032 37.5134V35.8793H10.7996V37.5134C10.7996 37.7266 10.7996 37.9397 10.7287 38.1529C10.6578 38.366 10.5869 38.5081 10.516 38.6502C10.3742 38.7923 10.2323 38.9344 10.0905 39.0055C10.0196 39.0765 9.80692 39.0765 9.5942 39.0765Z" fill="white"/>
<path d="M13.1401 36.8028V39.0764H12.5729V35.8081H12.9983L14.9127 38.1527V35.8081H15.409V39.0764H14.9127L13.1401 36.8028Z" fill="white"/>
<path d="M17.5358 35.8081H17.0394V39.0764H17.5358V35.8081Z" fill="white"/>
<path d="M20.9391 37.7976L20.4428 36.3767L19.8756 37.7976H20.9391ZM20.0883 35.1688C20.0174 35.1688 20.0174 35.1688 19.9465 35.1688L19.8756 35.2399V35.3109C19.8756 35.3109 19.8756 35.3109 19.8756 35.382H19.592V35.3109C19.592 35.2399 19.592 35.2399 19.6629 35.1688C19.6629 35.0978 19.7338 35.0978 19.7338 35.0267C19.7338 34.9557 19.8047 34.9557 19.8756 34.8846C19.9465 34.8846 20.0174 34.8136 20.0883 34.8136C20.1592 34.8136 20.2301 34.8136 20.301 34.8846C20.3719 34.8846 20.4428 34.9557 20.5137 34.9557C20.5846 34.9557 20.6555 35.0267 20.7264 35.0267C20.7973 35.0267 20.7973 35.0267 20.8682 35.0267C20.8682 35.0267 20.9391 35.0267 20.9391 34.9557C20.9391 34.9557 20.9391 34.8846 21.01 34.8846V34.8136H21.2937V34.8846C21.2937 34.9557 21.2937 34.9557 21.2228 35.0267C21.2228 35.0978 21.1518 35.0978 21.1518 35.1688C21.0809 35.2399 21.0809 35.2399 21.01 35.3109C20.9391 35.3109 20.8682 35.382 20.7973 35.382C20.7264 35.382 20.6555 35.382 20.5846 35.3109C20.5137 35.3109 20.4428 35.2399 20.3719 35.2399C20.2301 35.2399 20.1592 35.1688 20.0883 35.1688ZM20.1592 35.8083H20.6555L21.9318 39.0765H21.3646L21.01 38.1529H19.7338L19.3792 39.0765H18.812L20.1592 35.8083Z" fill="white"/>
<path d="M24.4848 38.6501C24.6266 38.6501 24.7684 38.6501 24.9102 38.579C25.0521 38.508 25.123 38.4369 25.2648 38.2948C25.3357 38.1527 25.4066 38.0817 25.4775 37.9396C25.5484 37.7975 25.5484 37.6554 25.5484 37.5133C25.5484 37.3712 25.5484 37.2291 25.4775 37.087C25.4066 36.9449 25.3357 36.8028 25.2648 36.7318C25.1939 36.5897 25.0521 36.5186 24.9102 36.4476C24.7684 36.3765 24.6266 36.3765 24.4848 36.3765C24.343 36.3765 24.2012 36.3765 24.0594 36.4476C23.9176 36.5186 23.8467 36.5897 23.7049 36.7318C23.634 36.8739 23.5631 36.9449 23.4922 37.087C23.4213 37.2291 23.4213 37.3712 23.4213 37.5133C23.4213 37.7264 23.4922 37.9396 23.5631 38.0817C23.634 38.2948 23.7758 38.4369 23.9176 38.508C24.0594 38.579 24.2721 38.6501 24.4848 38.6501ZM22.9249 37.4422C22.9249 37.2291 22.9958 37.016 23.0667 36.8028C23.1376 36.5897 23.2794 36.4476 23.4213 36.3055C23.5631 36.1634 23.7049 36.0213 23.9176 35.9502C24.1303 35.8792 24.343 35.8081 24.5557 35.8081C24.7684 35.8081 24.9811 35.8792 25.1939 35.9502C25.4066 36.0213 25.5484 36.1634 25.6902 36.3055C25.832 36.4476 25.9029 36.6607 25.9738 36.8739C26.0447 37.087 26.1156 37.3002 26.1156 37.5133C26.1156 37.7264 26.0447 37.9396 25.9738 38.1527C25.9029 38.3659 25.7611 38.508 25.6193 38.6501C25.4775 38.7922 25.3357 38.9343 25.123 39.0053C24.9102 39.0764 24.6975 39.1474 24.4848 39.1474C24.2721 39.1474 24.1303 39.1474 23.9885 39.0764C23.8467 39.0053 23.7049 38.9343 23.5631 38.7922C23.4213 38.7211 23.3504 38.579 23.2085 38.4369C23.0667 38.2948 23.0667 38.1527 22.9958 38.0106C22.9249 37.7975 22.9249 37.5843 22.9249 37.4422Z" fill="white"/>
<path d="M31.7876 38.6501V39.0764H29.5187V35.8081H31.7167V36.2344H30.0859V37.2291H31.504V37.6554H30.0859V38.6501H31.7876Z" fill="white"/>
<path d="M35.8292 37.5133H36.7509C36.8928 37.5133 37.0346 37.4423 37.1055 37.3002C37.1764 37.1581 37.2473 37.016 37.2473 36.8739C37.2473 36.7318 37.1764 36.5897 37.1055 36.4476C37.0346 36.3055 36.8928 36.2344 36.7509 36.2344H35.9001V37.5133H35.8292ZM35.262 39.0764V35.8081H36.68C36.8219 35.8081 36.9637 35.8081 37.1055 35.8792C37.2473 35.9502 37.3182 36.0213 37.46 36.0923C37.5309 36.1634 37.6018 36.3055 37.6727 36.4476C37.7436 36.5897 37.7436 36.7318 37.7436 36.8028C37.7436 37.016 37.6727 37.2291 37.6018 37.3712C37.46 37.5843 37.3182 37.6554 37.1055 37.7264L37.8854 39.0053H37.3182L36.6091 37.8685H35.8292V39.0053H35.262V39.0764Z" fill="white"/>
<path d="M41.5016 38.6501V39.0764H39.2327V35.8081H41.4307V36.2344H39.729V37.2291H41.218V37.6554H39.729V38.6501H41.5016Z" fill="white"/>
<path d="M44.2672 35.8081C44.5508 35.8081 44.8344 35.8792 45.0471 36.0213C45.2598 36.1634 45.4016 36.3055 45.5435 36.5186L45.118 36.8028C45.0471 36.7318 45.0471 36.6607 44.9762 36.5897C44.9053 36.5186 44.8344 36.4476 44.7635 36.4476C44.6926 36.3765 44.6217 36.3765 44.5508 36.3765C44.4799 36.3765 44.409 36.3765 44.3381 36.3765C44.1963 36.3765 44.0545 36.3765 43.9836 36.4476C43.8417 36.5186 43.7708 36.5897 43.6999 36.6607C43.629 36.7318 43.5581 36.8028 43.4872 36.9449C43.4163 37.016 43.4163 37.1581 43.3454 37.3002C43.3454 37.4423 43.2745 37.5133 43.2745 37.6554C43.2745 37.8685 43.3454 38.0817 43.4163 38.2238C43.4872 38.4369 43.629 38.579 43.7709 38.6501C43.9127 38.7922 44.1254 38.7922 44.3381 38.7922C44.4799 38.7922 44.5508 38.7922 44.6926 38.7211C44.8344 38.6501 44.9053 38.6501 44.9762 38.508C45.0471 38.4369 45.118 38.2948 45.1889 38.2238L45.6144 38.4369C45.5435 38.579 45.4725 38.7211 45.3307 38.8632C45.1889 39.0053 45.0471 39.0764 44.8344 39.1474C44.6926 39.2185 44.4799 39.2185 44.3381 39.2185C44.1254 39.2185 43.9127 39.1474 43.6999 39.0764C43.4872 39.0053 43.3454 38.8632 43.2036 38.7211C43.0618 38.579 42.9909 38.3659 42.92 38.1527C42.8491 37.9396 42.7782 37.7264 42.7782 37.5133C42.7782 37.3712 42.7782 37.2291 42.8491 37.016C42.92 36.8739 42.9909 36.7318 43.0618 36.5897C43.1327 36.4476 43.2745 36.3055 43.4163 36.2344C43.5581 36.0923 43.7 36.0213 43.8418 35.9502C43.8418 35.8081 44.0545 35.8081 44.2672 35.8081Z" fill="white"/>
<path d="M48.2375 38.6501C48.3793 38.6501 48.5211 38.6501 48.6629 38.579C48.8047 38.508 48.8756 38.4369 49.0174 38.2948C49.0883 38.1527 49.1592 38.0817 49.2301 37.9396C49.301 37.7975 49.3011 37.6554 49.3011 37.5133C49.3011 37.3712 49.301 37.2291 49.2301 37.087C49.1592 36.9449 49.0883 36.8028 49.0174 36.7318C48.9465 36.5897 48.8047 36.5186 48.6629 36.4476C48.5211 36.3765 48.3793 36.3765 48.2375 36.3765C48.0957 36.3765 47.9539 36.3765 47.8121 36.4476C47.6703 36.5186 47.5993 36.5897 47.4575 36.7318C47.3866 36.8739 47.3157 36.9449 47.2448 37.087C47.1739 37.2291 47.1739 37.3712 47.1739 37.5133C47.1739 37.7264 47.2448 37.9396 47.3157 38.0817C47.3866 38.2948 47.5285 38.4369 47.6703 38.508C47.883 38.579 48.0248 38.6501 48.2375 38.6501ZM46.6776 37.4422C46.6776 37.2291 46.7485 37.016 46.8194 36.8028C46.8903 36.5897 47.0321 36.4476 47.1739 36.3055C47.3157 36.1634 47.4576 36.0213 47.6703 35.9502C47.883 35.8792 48.0957 35.8081 48.3084 35.8081C48.5211 35.8081 48.7338 35.8792 48.9465 35.9502C49.1592 36.0213 49.3011 36.1634 49.4429 36.3055C49.5847 36.4476 49.6556 36.6607 49.7265 36.8739C49.7974 37.087 49.8683 37.3002 49.8683 37.5133C49.8683 37.7264 49.7974 37.9396 49.7265 38.1527C49.6556 38.3659 49.5138 38.508 49.372 38.6501C49.2302 38.7922 49.0883 38.9343 48.8756 39.0053C48.6629 39.0764 48.4502 39.1474 48.2375 39.1474C48.0248 39.1474 47.883 39.1474 47.7412 39.0764C47.5994 39.0053 47.4576 38.9343 47.3157 38.7922C47.1739 38.7211 47.103 38.579 46.9612 38.4369C46.8194 38.2948 46.8194 38.1527 46.7485 38.0106C46.6776 37.7975 46.6776 37.5843 46.6776 37.4422Z" fill="white"/>
<path d="M51.7827 36.8028V39.0764H51.2864V35.8081H51.7118L53.5553 38.1527V35.8081H54.0516V39.0764H53.6262L51.7827 36.8028Z" fill="white"/>
<path d="M57.6678 36.5897C57.5969 36.5187 57.4551 36.4476 57.3133 36.3766C57.1714 36.3055 56.9587 36.2345 56.8169 36.2345C56.6042 36.2345 56.4624 36.3055 56.3206 36.3766C56.2497 36.4476 56.1788 36.5897 56.1788 36.7318C56.1788 36.8029 56.1788 36.8029 56.1788 36.8739C56.1788 36.8739 56.1788 36.945 56.2497 36.945L56.3206 37.016C56.3915 37.016 56.3915 37.0871 56.4624 37.0871C56.5333 37.0871 56.5333 37.1581 56.6042 37.1581C56.6751 37.1581 56.746 37.2292 56.8169 37.2292C56.8878 37.2292 56.9587 37.2292 57.0296 37.3002C57.1714 37.3002 57.3132 37.3713 57.3841 37.3713C57.455 37.3713 57.5969 37.4423 57.6678 37.5134C57.7387 37.5844 57.8096 37.6555 57.8805 37.6555C57.9514 37.7265 57.9514 37.7976 58.0223 37.8686C58.0223 37.9396 58.0932 38.0817 58.0932 38.1528C58.0932 38.2949 58.0932 38.3659 58.0223 38.508C57.9514 38.5791 57.9514 38.7212 57.8805 38.7922C57.8096 38.8633 57.7387 38.9343 57.5969 39.0054C57.526 39.0764 57.3842 39.0764 57.2423 39.0764C57.1005 39.0764 57.0296 39.0764 56.8878 39.0764C56.6751 39.0764 56.3915 39.0054 56.1788 38.9343C55.9661 38.8633 55.7534 38.7212 55.5406 38.5791L55.7534 38.1528C55.8243 38.2238 56.037 38.3659 56.2497 38.437C56.4624 38.508 56.6751 38.5791 56.8878 38.5791C57.1005 38.5791 57.2423 38.508 57.3841 38.437C57.5259 38.3659 57.526 38.2949 57.526 38.1528C57.526 38.0817 57.526 38.0817 57.526 38.0107C57.526 37.9396 57.455 37.9396 57.455 37.8686C57.3841 37.7976 57.3842 37.7975 57.3133 37.7975C57.2423 37.7975 57.2423 37.7265 57.1005 37.7265C57.0296 37.7265 56.9587 37.6555 56.8878 37.6555C56.8169 37.6555 56.746 37.5844 56.6042 37.5844C56.4624 37.5134 56.3206 37.5134 56.1788 37.4423C56.037 37.3713 55.9661 37.3713 55.8952 37.3002C55.8243 37.2292 55.7533 37.1581 55.6824 37.0871C55.6115 37.016 55.6115 36.8739 55.6115 36.7318C55.6115 36.5897 55.6115 36.4476 55.6824 36.3055C55.7533 36.1634 55.8242 36.0924 55.9661 36.0213C56.037 35.9503 56.1788 35.8792 56.3206 35.8082C56.4624 35.7371 56.6042 35.7372 56.8169 35.7372C57.2423 35.7372 57.5969 35.8792 57.9514 36.0924L57.6678 36.5897Z" fill="white"/>
<path d="M61.8506 36.2344H60.7161V39.0764H60.2198V36.2344H59.1562V35.8081H61.8506V36.2344Z" fill="white"/>
<path d="M63.6945 37.5133H64.6162C64.758 37.5133 64.8998 37.4423 64.9707 37.3002C65.0416 37.1581 65.1125 37.016 65.1125 36.8739C65.1125 36.7318 65.0416 36.5897 64.9707 36.4476C64.8998 36.3055 64.758 36.2344 64.6162 36.2344H63.7653V37.5133H63.6945ZM63.1981 39.0764V35.8081H64.6162C64.758 35.8081 64.8998 35.8081 65.0416 35.8792C65.1834 35.9502 65.2543 36.0213 65.3962 36.0923C65.4671 36.1634 65.538 36.3055 65.6089 36.4476C65.6798 36.5897 65.6798 36.7318 65.6798 36.8028C65.6798 37.016 65.6089 37.2291 65.5379 37.3712C65.3961 37.5843 65.2543 37.6554 65.0416 37.7264L65.8216 39.0053H65.2543L64.5453 37.8685H63.7653V39.0053H63.1981V39.0764Z" fill="white"/>
<path d="M68.5158 39.0765C68.3031 39.0765 68.1613 39.0765 67.9486 39.0055C67.8068 38.9344 67.665 38.8634 67.5232 38.7923C67.3814 38.7213 67.3105 38.5792 67.2396 38.4371C67.1687 38.295 67.0978 38.1529 67.0978 38.0108C67.0978 37.8687 67.0269 37.6555 67.0269 37.5134V35.8793H67.5232V37.5134C67.5232 37.6555 67.5232 37.7266 67.5232 37.8687C67.5232 38.0108 67.5941 38.0818 67.5941 38.1529C67.665 38.2239 67.665 38.366 67.7359 38.4371C67.8068 38.5081 67.8777 38.5792 68.0195 38.5792C68.0904 38.6502 68.2322 38.6502 68.374 38.6502C68.5158 38.6502 68.6576 38.6502 68.7285 38.5792C68.7995 38.5081 68.9413 38.5081 69.0122 38.4371C69.0831 38.366 69.154 38.295 69.154 38.1529C69.2249 38.0818 69.2249 37.9397 69.2249 37.8687C69.2249 37.7266 69.2249 37.6555 69.2249 37.5134V35.8793H69.7212V37.5134C69.7212 37.7266 69.7212 37.9397 69.6503 38.1529C69.5794 38.366 69.5085 38.5081 69.4376 38.6502C69.2958 38.7923 69.154 38.9344 69.0122 39.0055C68.9413 39.0765 68.7286 39.0765 68.5158 39.0765Z" fill="white"/>
<path d="M74.1885 38.3659C74.1176 38.579 73.9758 38.7211 73.763 38.8632C73.5503 39.0053 73.3376 39.0764 73.1249 39.1474C73.2667 39.2895 73.3376 39.4316 73.3376 39.5737C73.3376 39.7158 73.2667 39.7868 73.1958 39.8579C73.1249 39.9289 72.9831 40 72.8413 40C72.6286 40 72.4868 39.9289 72.2741 39.8579L72.4159 39.5737C72.5577 39.6447 72.6286 39.6447 72.7704 39.6447C72.8413 39.6447 72.9122 39.6447 72.9831 39.5737C73.054 39.5026 73.054 39.5026 73.054 39.4316C73.054 39.2895 72.9831 39.2185 72.8413 39.0764C72.6286 39.0764 72.4159 39.0053 72.2741 38.8632C72.0613 38.7922 71.9196 38.6501 71.8486 38.508C71.7068 38.3659 71.6359 38.1527 71.565 38.0106C71.4941 37.7975 71.4232 37.6554 71.4232 37.4422C71.4232 37.3002 71.4232 37.1581 71.4941 36.9449C71.565 36.8028 71.6359 36.6607 71.7068 36.5186C71.7777 36.3765 71.9195 36.2344 72.0614 36.1634C72.2032 36.0923 72.345 35.9502 72.4868 35.8792C72.6286 35.8081 72.8413 35.8081 73.054 35.8081C73.3376 35.8081 73.6212 35.8792 73.834 36.0213C74.0467 36.1634 74.1885 36.3055 74.3303 36.5186L73.9049 36.8028C73.834 36.7318 73.8339 36.6607 73.763 36.5897C73.6921 36.5186 73.6212 36.4476 73.5503 36.4476C73.4794 36.4476 73.4085 36.3765 73.3376 36.3765C73.2667 36.3765 73.1958 36.3765 73.1249 36.3765C72.9831 36.3765 72.8413 36.3765 72.7704 36.4476C72.6286 36.5186 72.5577 36.5897 72.4868 36.6607C72.4159 36.7318 72.345 36.8028 72.2741 36.9449C72.2031 37.016 72.2032 37.1581 72.1323 37.3002C72.1323 37.4423 72.0614 37.5133 72.0614 37.6554C72.0614 37.8685 72.1323 38.0817 72.2032 38.2238C72.2741 38.4369 72.4159 38.579 72.5577 38.6501C72.6995 38.7922 72.9122 38.7922 73.1249 38.7922C73.2667 38.7922 73.3376 38.7922 73.4794 38.7211C73.5503 38.7211 73.6921 38.6501 73.763 38.579C73.8339 38.508 73.9049 38.3659 73.9758 38.2948L74.1885 38.3659Z" fill="white"/>
<path d="M77.2367 37.7976L76.7404 36.3767L76.1732 37.7976H77.2367ZM76.3859 35.1688C76.315 35.1688 76.315 35.1688 76.2441 35.1688L76.1732 35.2399V35.3109C76.1732 35.3109 76.1732 35.3109 76.1732 35.382H75.8896V35.3109C75.8896 35.2399 75.8896 35.2399 75.9605 35.1688C75.9605 35.0978 76.0314 35.0978 76.0314 35.0267C76.0314 34.9557 76.1023 34.9557 76.1732 34.8846C76.2441 34.8846 76.315 34.8136 76.3859 34.8136C76.4568 34.8136 76.5277 34.8136 76.5986 34.8846C76.6695 34.8846 76.7404 34.9557 76.8113 34.9557C76.8822 34.9557 76.9531 35.0267 77.024 35.0267C77.0949 35.0267 77.095 35.0267 77.1659 35.0267C77.1659 35.0267 77.2367 35.0267 77.2367 34.9557C77.2367 34.9557 77.2367 34.8846 77.3077 34.8846V34.8136H77.5913V34.8846C77.5913 34.9557 77.5913 34.9557 77.5204 35.0267C77.5204 35.0978 77.4495 35.0978 77.4495 35.1688C77.3786 35.2399 77.3786 35.2399 77.3077 35.3109C77.2367 35.3109 77.1659 35.382 77.0949 35.382C77.024 35.382 76.9531 35.382 76.8822 35.3109C76.8113 35.3109 76.7404 35.2399 76.6695 35.2399C76.5277 35.2399 76.4568 35.1688 76.3859 35.1688ZM76.4568 35.8083H76.9531L78.2294 39.0765H77.6622L77.3077 38.1529H76.0314L75.6769 39.0765H75.1096L76.4568 35.8083Z" fill="white"/>
<path d="M80.7824 38.6501C80.9242 38.6501 81.066 38.6501 81.2078 38.579C81.3496 38.508 81.4206 38.4369 81.5624 38.2948C81.6333 38.1527 81.7042 38.0817 81.7751 37.9396C81.846 37.7975 81.846 37.6554 81.846 37.5133C81.846 37.3712 81.846 37.2291 81.7751 37.087C81.7042 36.9449 81.6333 36.8028 81.5624 36.7318C81.4915 36.5897 81.3496 36.5186 81.2078 36.4476C81.066 36.3765 80.9242 36.3765 80.7824 36.3765C80.6406 36.3765 80.4988 36.3765 80.357 36.4476C80.2152 36.5186 80.1443 36.5897 80.0025 36.7318C79.9316 36.8739 79.8607 36.9449 79.7898 37.087C79.7189 37.2291 79.7188 37.3712 79.7188 37.5133C79.7188 37.7264 79.7898 37.9396 79.8607 38.0817C79.9316 38.2948 80.0734 38.4369 80.2152 38.508C80.4279 38.579 80.5697 38.6501 80.7824 38.6501ZM79.2225 37.4422C79.2225 37.2291 79.2934 37.016 79.3643 36.8028C79.4352 36.5897 79.577 36.4476 79.7188 36.3055C79.8607 36.1634 80.0025 36.0213 80.2152 35.9502C80.4279 35.8792 80.6406 35.8081 80.8533 35.8081C81.066 35.8081 81.2787 35.8792 81.4915 35.9502C81.7042 36.0213 81.846 36.1634 81.9878 36.3055C82.1296 36.4476 82.2005 36.6607 82.2714 36.8739C82.3423 37.087 82.4132 37.3002 82.4132 37.5133C82.4132 37.7264 82.3423 37.9396 82.2714 38.1527C82.2005 38.3659 82.0587 38.508 81.9169 38.6501C81.7751 38.7922 81.6333 38.9343 81.4206 39.0053C81.2079 39.0764 80.9951 39.1474 80.7824 39.1474C80.5697 39.1474 80.4279 39.1474 80.2861 39.0764C80.1443 39.0053 80.0025 38.9343 79.8607 38.7922C79.7189 38.7211 79.648 38.579 79.5061 38.4369C79.4352 38.2948 79.3643 38.1527 79.2934 38.0106C79.2225 37.7975 79.2225 37.5843 79.2225 37.4422Z" fill="white"/>
<path d="M17.1894 30.6138V22.1748H25.5374L31.015 30.6138H17.1894Z" fill="white" stroke="#0A5C67" stroke-width="0.3"/>
<path d="M7.32569 30.6138H7.17569V30.6849H0.597998V17.8409H10.5164C14.0494 17.8409 16.8896 20.6865 16.8896 24.2274C16.8896 27.7683 14.0494 30.6138 10.5164 30.6138H7.32569Z" fill="white" stroke="#0A5C67" stroke-width="0.3"/>
<path d="M9.73644 17.4699H0.597998V8.95988H9.73644C12.064 8.95988 13.9825 10.8818 13.9825 13.2149C13.9825 15.548 12.064 17.4699 9.73644 17.4699Z" fill="white" stroke="#0A5C67" stroke-width="0.3"/>
<path d="M52.9371 30.6138H27.4418L40.1548 9.10409L52.9371 30.6138Z" fill="white" stroke="#0A5C67" stroke-width="0.3"/>
<path d="M75.0472 23.2248V8.95988H82.334V23.2248H75.0472Z" fill="white" stroke="#0A5C67" stroke-width="0.3"/>
<path d="M82.5632 30.6138V23.5248H89.8499V30.6138H82.5632Z" fill="white" stroke="#0A5C67" stroke-width="0.3"/>
<path d="M75.0472 30.6138V23.5248H82.334V30.6138H75.0472Z" fill="white" stroke="#0A5C67" stroke-width="0.3"/>
<path d="M49.5219 30.6139V18.6936H56.3833V30.6139H49.5219Z" fill="white" stroke="#0A5C67" stroke-width="0.3"/>
<path d="M27.4379 30.6139L29.1022 27.7109L31.0131 30.6139H27.4379Z" fill="white" stroke="#0A5C67" stroke-width="0.3"/>
<path d="M52.9361 30.6138H49.5219V24.9119L52.9361 30.6138Z" fill="white" stroke="#0A5C67" stroke-width="0.3"/>
<path d="M66.1843 30.6138V8.95988H73.471V30.6138H66.1843Z" fill="white" stroke="#0A5C67" stroke-width="0.3"/>
<path d="M0.597998 17.4699V8.95988H7.88473V17.4699H0.597998Z" fill="white" stroke="#0A5C67" stroke-width="0.3"/>
<path d="M25.6188 21.8749H23.3499H17.1894V8.95988H25.6188C29.1518 8.95988 32.0629 11.8765 32.0629 15.4174C32.0629 18.9593 29.2217 21.8749 25.6188 21.8749Z" fill="white" stroke="#0A5C67" stroke-width="0.3"/>
<path d="M56.6832 16.6173V8.95988H64.6081V16.6173H56.6832Z" fill="white" stroke="#0A5C67" stroke-width="0.3"/>
<path d="M56.7541 30.5428V16.9173H59.0858C62.8315 16.9173 65.8844 19.976 65.8844 23.73C65.8844 27.4841 62.8315 30.5428 59.0858 30.5428H56.7541Z" fill="white" stroke="#0A5C67" stroke-width="0.3"/>
<path d="M54.2643 9.03093H56.3833V18.4645H54.2643C51.6531 18.4645 49.5219 16.3295 49.5219 13.7122C49.5219 11.1452 51.572 9.04211 54.1143 8.96223V9.03093H54.2643Z" fill="white" stroke="#0A5C67" stroke-width="0.3"/>
<path d="M0.597998 30.6138V17.7698H7.88473V30.6138H0.597998Z" fill="white" stroke="#0A5C67" stroke-width="0.3"/>
<path d="M17.1894 21.8749V9.31639L25.3426 21.8749H17.1894Z" fill="white" stroke="#0A5C67" stroke-width="0.3"/>
<path d="M40.1545 22.8855C44.4867 22.8855 47.9359 26.3587 48.0153 30.6139H32.2937C32.3734 26.2922 35.8899 22.8855 40.1545 22.8855Z" fill="white" stroke="#0A5C67" stroke-width="0.3"/>
<path d="M12.2886 1.9183V2.27354C12.2886 3.55241 11.4377 4.40499 10.3032 4.40499C9.09788 4.40499 8.10522 3.48136 8.10522 2.20249C8.10522 0.923621 9.09788 0 10.3032 0C11.0832 0 11.7922 0.42629 12.1468 1.06572L11.225 1.63411C11.0123 1.27887 10.7287 1.13677 10.3032 1.13677C9.66511 1.13677 9.23968 1.63411 9.23968 2.27354C9.23968 2.91298 9.66511 3.33927 10.3032 3.33927C10.7287 3.33927 11.0123 3.12612 11.1541 2.84193H10.0196V1.98935H12.2886V1.9183Z" fill="white"/>
<path d="M16.9687 2.20249C16.9687 1.6341 16.5432 1.20782 15.976 1.20782C15.4088 1.20782 14.9833 1.6341 14.9833 2.20249C14.9833 2.77088 15.4088 3.19717 15.976 3.19717C16.6141 3.26822 16.9687 2.77088 16.9687 2.20249ZM13.8489 2.20249C13.8489 0.994669 14.8415 0 16.0469 0C17.2523 0 18.2449 0.994669 18.2449 2.20249C18.2449 3.41031 17.2523 4.40499 16.0469 4.40499C14.8415 4.40499 13.8489 3.41031 13.8489 2.20249Z" fill="white"/>
<path d="M23.6337 0.14209L22.0029 4.26289H20.8685L19.2377 0.14209H20.443L21.4357 2.69983L22.4284 0.14209H23.6337Z" fill="white"/>
<path d="M26.1865 1.13676V1.7762H27.3918V2.62878H26.1865V3.26821H28.03V4.26289H25.052V0.14209H28.03V1.13676H26.1865Z" fill="white"/>
<path d="M30.8654 1.9183H31.6454C31.929 1.9183 32.0708 1.70515 32.0708 1.56306C32.0708 1.34991 31.929 1.13676 31.6454 1.13676H30.8654V1.9183ZM31.3618 2.84193H30.8654V4.26289H29.731V0.14209H31.7163C32.4962 0.14209 33.1344 0.710472 33.1344 1.492C33.1344 2.06039 32.8507 2.48669 32.4253 2.69983L33.3471 4.33393H32.0708L31.3618 2.84193Z" fill="white"/>
<path d="M38.6655 0.14209V4.26289H37.7438L36.0421 2.13144V4.26289H34.9785V0.14209H35.9003L37.602 2.34459V0.14209H38.6655Z" fill="white"/>
<path d="M43.4871 2.20249C43.4871 1.6341 43.0616 1.20782 42.4944 1.20782C41.9272 1.20782 41.5017 1.6341 41.5017 2.20249C41.5017 2.77088 41.9272 3.19717 42.4944 3.19717C43.0616 3.26822 43.4871 2.77088 43.4871 2.20249ZM40.2964 2.20249C40.2964 0.994669 41.289 0 42.4944 0C43.6998 0 44.6924 0.994669 44.6924 2.20249C44.6924 3.41031 43.6998 4.40499 42.4944 4.40499C41.289 4.40499 40.2964 3.41031 40.2964 2.20249Z" fill="white"/>
<path d="M50.1517 1.13676V1.84724H51.357V2.77087H50.1517V4.26289H49.0172V0.14209H51.9952V1.13676H50.1517Z" fill="white"/>
<path d="M54.8315 1.13676V1.7762H56.0368V2.62878H54.8315V3.26821H56.675V4.26289H53.697V0.14209H56.675V1.13676H54.8315Z" fill="white"/>
<path d="M61.1422 2.20249C61.1422 1.56305 60.7168 1.20781 60.0077 1.20781H59.5114V3.19717H60.0077C60.7168 3.19717 61.1422 2.84192 61.1422 2.20249ZM62.2767 2.20249C62.2767 3.41031 61.3549 4.26289 60.0786 4.26289H58.377V0.14209H60.0786C61.3549 0.14209 62.2767 0.994665 62.2767 2.20249Z" fill="white"/>
<path d="M65.0417 1.13676V1.7762H66.2471V2.62878H65.0417V3.26821H66.8852V4.26289H63.9072V0.14209H66.8852V1.13676H65.0417Z" fill="white"/>
<path d="M69.7213 1.9183H70.5012C70.7848 1.9183 70.9266 1.70515 70.9266 1.56306C70.9266 1.34991 70.7848 1.13676 70.5012 1.13676H69.7213V1.9183ZM70.2176 2.84193H69.7213V4.26289H68.5868V0.14209H70.5721C71.352 0.14209 71.9902 0.710472 71.9902 1.492C71.9902 2.06039 71.7066 2.48669 71.2811 2.69983L72.2029 4.33393H70.9975L70.2176 2.84193Z" fill="white"/>
<path d="M76.1735 2.55767L75.7481 1.563L75.3227 2.55767H76.1735ZM76.5989 3.55235H74.9681L74.6845 4.26284H73.55L75.2517 0.0709839H76.3153L78.0879 4.26284H76.9534L76.5989 3.55235Z" fill="white"/>
<path d="M82.4133 3.19717V4.26289H79.5062V0.14209H80.7116V3.19717H82.4133Z" fill="white"/>
<path d="M12.2886 1.9183V2.27354C12.2886 3.55241 11.4377 4.40499 10.3032 4.40499C9.09788 4.40499 8.10522 3.48136 8.10522 2.20249C8.10522 0.923621 9.09788 0 10.3032 0C11.0832 0 11.7922 0.42629 12.1468 1.06572L11.225 1.63411C11.0123 1.27887 10.7287 1.13677 10.3032 1.13677C9.66511 1.13677 9.23968 1.63411 9.23968 2.27354C9.23968 2.91298 9.66511 3.33927 10.3032 3.33927C10.7287 3.33927 11.0123 3.12612 11.1541 2.84193H10.0196V1.98935H12.2886V1.9183Z" fill="white"/>
<path d="M16.9687 2.20249C16.9687 1.6341 16.5432 1.20782 15.976 1.20782C15.4088 1.20782 14.9833 1.6341 14.9833 2.20249C14.9833 2.77088 15.4088 3.19717 15.976 3.19717C16.6141 3.26822 16.9687 2.77088 16.9687 2.20249ZM13.8489 2.20249C13.8489 0.994669 14.8415 0 16.0469 0C17.2523 0 18.2449 0.994669 18.2449 2.20249C18.2449 3.41031 17.2523 4.40499 16.0469 4.40499C14.8415 4.40499 13.8489 3.41031 13.8489 2.20249Z" fill="white"/>
<path d="M23.6337 0.14209L22.0029 4.26289H20.8685L19.2377 0.14209H20.443L21.4357 2.69983L22.4284 0.14209H23.6337Z" fill="white"/>
<path d="M26.1865 1.13676V1.7762H27.3918V2.62878H26.1865V3.26821H28.03V4.26289H25.052V0.14209H28.03V1.13676H26.1865Z" fill="white"/>
<path d="M30.8654 1.9183H31.6454C31.929 1.9183 32.0708 1.70515 32.0708 1.56306C32.0708 1.34991 31.929 1.13676 31.6454 1.13676H30.8654V1.9183ZM31.3618 2.84193H30.8654V4.26289H29.731V0.14209H31.7163C32.4962 0.14209 33.1344 0.710472 33.1344 1.492C33.1344 2.06039 32.8507 2.48669 32.4253 2.69983L33.3471 4.33393H32.0708L31.3618 2.84193Z" fill="white"/>
<path d="M38.6655 0.14209V4.26289H37.7438L36.0421 2.13144V4.26289H34.9785V0.14209H35.9003L37.602 2.34459V0.14209H38.6655Z" fill="white"/>
<path d="M43.4871 2.20249C43.4871 1.6341 43.0616 1.20782 42.4944 1.20782C41.9272 1.20782 41.5017 1.6341 41.5017 2.20249C41.5017 2.77088 41.9272 3.19717 42.4944 3.19717C43.0616 3.26822 43.4871 2.77088 43.4871 2.20249ZM40.2964 2.20249C40.2964 0.994669 41.289 0 42.4944 0C43.6998 0 44.6924 0.994669 44.6924 2.20249C44.6924 3.41031 43.6998 4.40499 42.4944 4.40499C41.289 4.40499 40.2964 3.41031 40.2964 2.20249Z" fill="white"/>
<path d="M50.1517 1.13676V1.84724H51.357V2.77087H50.1517V4.26289H49.0172V0.14209H51.9952V1.13676H50.1517Z" fill="white"/>
<path d="M54.8315 1.13676V1.7762H56.0368V2.62878H54.8315V3.26821H56.675V4.26289H53.697V0.14209H56.675V1.13676H54.8315Z" fill="white"/>
<path d="M61.1422 2.20249C61.1422 1.56305 60.7168 1.20781 60.0077 1.20781H59.5114V3.19717H60.0077C60.7168 3.19717 61.1422 2.84192 61.1422 2.20249ZM62.2767 2.20249C62.2767 3.41031 61.3549 4.26289 60.0786 4.26289H58.377V0.14209H60.0786C61.3549 0.14209 62.2767 0.994665 62.2767 2.20249Z" fill="white"/>
<path d="M65.0417 1.13676V1.7762H66.2471V2.62878H65.0417V3.26821H66.8852V4.26289H63.9072V0.14209H66.8852V1.13676H65.0417Z" fill="white"/>
<path d="M69.7213 1.9183H70.5012C70.7848 1.9183 70.9266 1.70515 70.9266 1.56306C70.9266 1.34991 70.7848 1.13676 70.5012 1.13676H69.7213V1.9183ZM70.2176 2.84193H69.7213V4.26289H68.5868V0.14209H70.5721C71.352 0.14209 71.9902 0.710472 71.9902 1.492C71.9902 2.06039 71.7066 2.48669 71.2811 2.69983L72.2029 4.33393H70.9975L70.2176 2.84193Z" fill="white"/>
<path d="M76.1735 2.55767L75.7481 1.563L75.3227 2.55767H76.1735ZM76.5989 3.55235H74.9681L74.6845 4.26284H73.55L75.2517 0.0709839H76.3153L78.0879 4.26284H76.9534L76.5989 3.55235Z" fill="white"/>
<path d="M82.4133 3.19717V4.26289H79.5062V0.14209H80.7116V3.19717H82.4133Z" fill="white"/>
</svg>
