<svg width="573" height="174" viewBox="0 0 573 174" fill="none" xmlns="http://www.w3.org/2000/svg">
<g clip-path="url(#clip0_3_2)">
<path d="M430.971 134L485.34 0H518.232L572.214 134H530.808L509.138 75.423C507.719 71.467 506.494 68.085 505.462 65.277C504.43 62.47 503.527 59.853 502.753 57.429C501.979 54.876 501.205 52.196 500.431 49.389C499.657 46.453 498.884 43.008 498.11 39.051H504.688C503.914 43.008 503.14 46.453 502.366 49.389C501.592 52.196 500.754 54.876 499.851 57.429C499.077 59.853 498.11 62.47 496.949 65.277C495.917 68.085 494.691 71.467 493.273 75.423L471.602 134H430.971ZM458.058 114.091L470.248 85.951H533.13L544.159 114.091H458.058Z" fill="#242424"/>
<path d="M311.457 134V0H370.22C379.174 0 387.133 1.9781 394.098 5.9343C401.062 9.8905 406.535 15.3143 410.514 22.2057C414.494 29.0971 416.484 37.01 416.484 45.943C416.484 55.259 414.494 63.554 410.514 70.829C406.535 78.103 401.062 83.846 394.098 88.057C387.133 92.141 379.174 94.183 370.22 94.183H351.751V134H311.457ZM351.005 58.96H362.758C365.121 58.96 367.235 58.513 369.1 57.62C370.966 56.599 372.396 55.195 373.391 53.409C374.51 51.622 375.07 49.389 375.07 46.709C375.07 44.029 374.51 41.859 373.391 40.2C372.396 38.541 370.966 37.329 369.1 36.563C367.235 35.67 365.121 35.223 362.758 35.223H351.005V58.96Z" fill="#242424"/>
<path d="M177.458 134V0H271.988V33.5H214.872V100.5H275.241V134H177.458ZM196.074 81.931V50.537H265.3V81.931H196.074Z" fill="#242424"/>
<path d="M-0.00201416 134V0H36.084L85.558 79.443L56.262 79.251L106.318 0H141.241V134H100.886V102.031C100.886 90.546 101.144 80.209 101.662 71.02C102.308 61.831 103.343 52.707 104.766 43.646L109.422 55.706L76.634 105.86H63.829L31.622 55.706L36.472 43.646C37.895 52.196 38.865 61.002 39.383 70.063C40.029 78.996 40.353 89.652 40.353 102.031V134H-0.00201416Z" fill="#242424"/>
<path d="M553.195 174.32C551.808 174.32 550.549 173.936 549.419 173.168C548.288 172.4 547.382 171.355 546.699 170.032C546.016 168.709 545.675 167.205 545.675 165.52C545.675 163.835 546.016 162.331 546.699 161.008C547.382 159.685 548.31 158.651 549.483 157.904C550.656 157.157 551.979 156.784 553.451 156.784C554.304 156.784 555.083 156.912 555.787 157.168C556.491 157.403 557.109 157.744 557.643 158.192C558.176 158.64 558.614 159.152 558.955 159.728C559.318 160.304 559.563 160.923 559.691 161.584L558.827 161.36V157.136H562.795V174H558.795V169.968L559.723 169.808C559.574 170.384 559.296 170.949 558.891 171.504C558.507 172.037 558.016 172.517 557.419 172.944C556.843 173.349 556.192 173.68 555.467 173.936C554.763 174.192 554.005 174.32 553.195 174.32ZM554.283 170.832C555.2 170.832 556.011 170.608 556.715 170.16C557.419 169.712 557.963 169.093 558.347 168.304C558.752 167.493 558.955 166.565 558.955 165.52C558.955 164.496 558.752 163.589 558.347 162.8C557.963 162.011 557.419 161.392 556.715 160.944C556.011 160.496 555.2 160.272 554.283 160.272C553.366 160.272 552.555 160.496 551.851 160.944C551.168 161.392 550.635 162.011 550.251 162.8C549.867 163.589 549.675 164.496 549.675 165.52C549.675 166.565 549.867 167.493 550.251 168.304C550.635 169.093 551.168 169.712 551.851 170.16C552.555 170.608 553.366 170.832 554.283 170.832Z" fill="#242424"/>
<path d="M537.9 174V157.136H541.836V174H537.9ZM539.82 153.552C539.03 153.552 538.412 153.36 537.964 152.976C537.537 152.571 537.324 152.005 537.324 151.28C537.324 150.597 537.548 150.043 537.996 149.616C538.444 149.189 539.052 148.976 539.82 148.976C540.63 148.976 541.249 149.179 541.676 149.584C542.124 149.968 542.348 150.533 542.348 151.28C542.348 151.941 542.124 152.485 541.676 152.912C541.228 153.339 540.609 153.552 539.82 153.552Z" fill="#242424"/>
<path d="M523.983 174V157.136H527.855L527.919 162.512L527.375 161.296C527.61 160.443 528.015 159.675 528.591 158.992C529.167 158.309 529.828 157.776 530.575 157.392C531.343 156.987 532.143 156.784 532.975 156.784C533.338 156.784 533.679 156.816 533.999 156.88C534.34 156.944 534.618 157.019 534.831 157.104L533.775 161.424C533.54 161.296 533.252 161.189 532.911 161.104C532.57 161.019 532.228 160.976 531.887 160.976C531.354 160.976 530.842 161.083 530.351 161.296C529.882 161.488 529.466 161.765 529.103 162.128C528.74 162.491 528.452 162.917 528.239 163.408C528.047 163.877 527.951 164.411 527.951 165.008V174H523.983Z" fill="#242424"/>
<path d="M511.726 174.32C510.041 174.32 508.537 173.947 507.214 173.2C505.892 172.432 504.846 171.387 504.078 170.064C503.31 168.741 502.926 167.237 502.926 165.552C502.926 163.867 503.31 162.363 504.078 161.04C504.846 159.717 505.892 158.683 507.214 157.936C508.537 157.168 510.041 156.784 511.726 156.784C513.39 156.784 514.884 157.168 516.206 157.936C517.529 158.683 518.564 159.717 519.31 161.04C520.078 162.363 520.462 163.867 520.462 165.552C520.462 167.237 520.078 168.741 519.31 170.064C518.564 171.387 517.529 172.432 516.206 173.2C514.884 173.947 513.39 174.32 511.726 174.32ZM511.726 170.832C512.644 170.832 513.454 170.597 514.158 170.128C514.884 169.659 515.449 169.029 515.854 168.24C516.281 167.451 516.484 166.555 516.462 165.552C516.484 164.528 516.281 163.621 515.854 162.832C515.449 162.043 514.884 161.424 514.158 160.976C513.454 160.507 512.644 160.272 511.726 160.272C510.809 160.272 509.977 160.507 509.23 160.976C508.505 161.424 507.94 162.053 507.534 162.864C507.129 163.653 506.926 164.549 506.926 165.552C506.926 166.555 507.129 167.451 507.534 168.24C507.94 169.029 508.505 169.659 509.23 170.128C509.977 170.597 510.809 170.832 511.726 170.832Z" fill="#242424"/>
<path d="M490.298 174.32C488.805 174.32 487.461 173.947 486.266 173.2C485.093 172.432 484.154 171.397 483.45 170.096C482.768 168.773 482.426 167.259 482.426 165.552C482.426 163.867 482.768 162.363 483.45 161.04C484.133 159.717 485.061 158.683 486.234 157.936C487.429 157.168 488.773 156.784 490.266 156.784C491.077 156.784 491.856 156.912 492.602 157.168C493.37 157.424 494.053 157.776 494.65 158.224C495.248 158.651 495.717 159.131 496.058 159.664C496.421 160.197 496.624 160.752 496.666 161.328L495.61 161.456V150.32H499.546V174H495.738L495.642 170.032L496.41 170.096C496.389 170.629 496.197 171.141 495.834 171.632C495.493 172.123 495.045 172.571 494.49 172.976C493.936 173.381 493.285 173.712 492.538 173.968C491.813 174.203 491.066 174.32 490.298 174.32ZM491.066 170.992C491.984 170.992 492.794 170.757 493.498 170.288C494.202 169.819 494.746 169.179 495.13 168.368C495.536 167.557 495.738 166.619 495.738 165.552C495.738 164.507 495.536 163.579 495.13 162.768C494.746 161.936 494.202 161.296 493.498 160.848C492.794 160.379 491.984 160.144 491.066 160.144C490.149 160.144 489.338 160.379 488.634 160.848C487.93 161.296 487.376 161.936 486.97 162.768C486.586 163.579 486.394 164.507 486.394 165.552C486.394 166.619 486.586 167.557 486.97 168.368C487.376 169.179 487.93 169.819 488.634 170.288C489.338 170.757 490.149 170.992 491.066 170.992Z" fill="#242424"/>
<path d="M472.668 174.32C470.898 174.32 469.33 173.947 467.964 173.2C466.62 172.453 465.564 171.44 464.796 170.16C464.05 168.859 463.676 167.376 463.676 165.712C463.676 164.389 463.89 163.184 464.316 162.096C464.743 161.008 465.33 160.069 466.076 159.28C466.844 158.469 467.751 157.851 468.796 157.424C469.863 156.976 471.026 156.752 472.284 156.752C473.394 156.752 474.428 156.965 475.388 157.392C476.348 157.819 477.18 158.405 477.884 159.152C478.588 159.877 479.122 160.752 479.484 161.776C479.868 162.779 480.05 163.877 480.028 165.072L479.996 166.448H466.332L465.596 163.76H476.7L476.188 164.304V163.6C476.124 162.939 475.911 162.363 475.548 161.872C475.186 161.36 474.716 160.965 474.14 160.688C473.586 160.389 472.967 160.24 472.284 160.24C471.239 160.24 470.354 160.443 469.628 160.848C468.924 161.253 468.391 161.84 468.028 162.608C467.666 163.355 467.484 164.293 467.484 165.424C467.484 166.512 467.708 167.461 468.156 168.272C468.626 169.083 469.276 169.712 470.108 170.16C470.962 170.587 471.954 170.8 473.084 170.8C473.874 170.8 474.599 170.672 475.26 170.416C475.922 170.16 476.636 169.701 477.404 169.04L479.356 171.76C478.78 172.293 478.119 172.752 477.372 173.136C476.647 173.499 475.879 173.787 475.068 174C474.258 174.213 473.458 174.32 472.668 174.32Z" fill="#242424"/>
<path d="M453.607 174.32C452.861 174.32 452.125 174.213 451.399 174C450.695 173.765 450.055 173.456 449.479 173.072C448.903 172.688 448.423 172.261 448.039 171.792C447.655 171.301 447.399 170.811 447.271 170.32L448.199 169.904L448.103 173.936H444.295V150.32H448.231V161.04L447.527 160.72C447.634 160.208 447.869 159.728 448.231 159.28C448.615 158.811 449.085 158.395 449.639 158.032C450.194 157.648 450.802 157.349 451.463 157.136C452.125 156.901 452.797 156.784 453.479 156.784C454.994 156.784 456.327 157.157 457.479 157.904C458.653 158.651 459.57 159.685 460.231 161.008C460.914 162.331 461.255 163.835 461.255 165.52C461.255 167.227 460.925 168.741 460.263 170.064C459.602 171.387 458.685 172.432 457.511 173.2C456.359 173.947 455.058 174.32 453.607 174.32ZM452.775 170.864C453.671 170.864 454.471 170.64 455.175 170.192C455.879 169.723 456.434 169.093 456.839 168.304C457.245 167.493 457.447 166.565 457.447 165.52C457.447 164.496 457.245 163.589 456.839 162.8C456.455 162.011 455.911 161.392 455.207 160.944C454.503 160.496 453.693 160.272 452.775 160.272C451.858 160.272 451.047 160.496 450.343 160.944C449.639 161.392 449.085 162.011 448.679 162.8C448.274 163.589 448.071 164.496 448.071 165.52C448.071 166.565 448.274 167.493 448.679 168.304C449.085 169.093 449.639 169.723 450.343 170.192C451.047 170.64 451.858 170.864 452.775 170.864Z" fill="#242424"/>
<path d="M430.132 174.32C428.746 174.32 427.487 173.936 426.356 173.168C425.226 172.4 424.319 171.355 423.636 170.032C422.954 168.709 422.612 167.205 422.612 165.52C422.612 163.835 422.954 162.331 423.636 161.008C424.319 159.685 425.247 158.651 426.42 157.904C427.594 157.157 428.916 156.784 430.388 156.784C431.242 156.784 432.02 156.912 432.724 157.168C433.428 157.403 434.047 157.744 434.58 158.192C435.114 158.64 435.551 159.152 435.892 159.728C436.255 160.304 436.5 160.923 436.628 161.584L435.764 161.36V157.136H439.732V174H435.732V169.968L436.66 169.808C436.511 170.384 436.234 170.949 435.828 171.504C435.444 172.037 434.954 172.517 434.356 172.944C433.78 173.349 433.13 173.68 432.404 173.936C431.7 174.192 430.943 174.32 430.132 174.32ZM431.22 170.832C432.138 170.832 432.948 170.608 433.652 170.16C434.356 169.712 434.9 169.093 435.284 168.304C435.69 167.493 435.892 166.565 435.892 165.52C435.892 164.496 435.69 163.589 435.284 162.8C434.9 162.011 434.356 161.392 433.652 160.944C432.948 160.496 432.138 160.272 431.22 160.272C430.303 160.272 429.492 160.496 428.788 160.944C428.106 161.392 427.572 162.011 427.188 162.8C426.804 163.589 426.612 164.496 426.612 165.52C426.612 166.565 426.804 167.493 427.188 168.304C427.572 169.093 428.106 169.712 428.788 170.16C429.492 170.608 430.303 170.832 431.22 170.832Z" fill="#242424"/>
<path d="M413.865 174.32C412.372 174.32 411.028 174.075 409.833 173.584C408.66 173.072 407.7 172.347 406.953 171.408L409.513 169.2C410.153 169.925 410.868 170.448 411.657 170.768C412.446 171.088 413.278 171.248 414.153 171.248C414.516 171.248 414.836 171.205 415.113 171.12C415.412 171.035 415.668 170.907 415.881 170.736C416.094 170.565 416.254 170.373 416.361 170.16C416.489 169.925 416.553 169.669 416.553 169.392C416.553 168.88 416.361 168.475 415.977 168.176C415.764 168.027 415.422 167.867 414.953 167.696C414.505 167.525 413.918 167.355 413.193 167.184C412.041 166.885 411.081 166.544 410.313 166.16C409.545 165.755 408.948 165.307 408.521 164.816C408.158 164.411 407.881 163.952 407.689 163.44C407.518 162.928 407.433 162.373 407.433 161.776C407.433 161.029 407.593 160.357 407.913 159.76C408.254 159.141 408.713 158.608 409.289 158.16C409.865 157.712 410.537 157.371 411.305 157.136C412.073 156.901 412.873 156.784 413.705 156.784C414.558 156.784 415.38 156.891 416.169 157.104C416.98 157.317 417.726 157.627 418.409 158.032C419.113 158.416 419.71 158.885 420.201 159.44L418.025 161.84C417.62 161.456 417.172 161.115 416.681 160.816C416.212 160.517 415.732 160.283 415.241 160.112C414.75 159.92 414.292 159.824 413.865 159.824C413.46 159.824 413.097 159.867 412.777 159.952C412.457 160.016 412.19 160.123 411.977 160.272C411.764 160.421 411.593 160.613 411.465 160.848C411.358 161.061 411.305 161.317 411.305 161.616C411.326 161.872 411.39 162.117 411.497 162.352C411.625 162.565 411.796 162.747 412.009 162.896C412.244 163.045 412.596 163.216 413.065 163.408C413.534 163.6 414.142 163.781 414.889 163.952C415.934 164.229 416.809 164.539 417.513 164.88C418.217 165.221 418.772 165.616 419.177 166.064C419.582 166.448 419.87 166.896 420.041 167.408C420.212 167.92 420.297 168.485 420.297 169.104C420.297 170.107 420.009 171.003 419.433 171.792C418.878 172.581 418.11 173.2 417.129 173.648C416.169 174.096 415.081 174.32 413.865 174.32Z" fill="#242424"/>
<path d="M368.825 174V157.136H372.697L372.761 160.528L372.121 160.784C372.313 160.229 372.601 159.717 372.985 159.248C373.369 158.757 373.828 158.341 374.361 158C374.895 157.637 375.46 157.36 376.057 157.168C376.655 156.955 377.263 156.848 377.881 156.848C378.799 156.848 379.609 156.997 380.313 157.296C381.039 157.573 381.636 158.021 382.105 158.64C382.596 159.259 382.959 160.048 383.193 161.008L382.585 160.88L382.841 160.368C383.076 159.856 383.407 159.397 383.833 158.992C384.26 158.565 384.74 158.192 385.273 157.872C385.807 157.531 386.361 157.275 386.937 157.104C387.535 156.933 388.121 156.848 388.697 156.848C389.977 156.848 391.044 157.104 391.897 157.616C392.751 158.128 393.391 158.907 393.817 159.952C394.244 160.997 394.457 162.288 394.457 163.824V174H390.489V164.08C390.489 163.227 390.372 162.523 390.137 161.968C389.924 161.413 389.583 161.008 389.113 160.752C388.665 160.475 388.1 160.336 387.417 160.336C386.884 160.336 386.372 160.432 385.881 160.624C385.412 160.795 385.007 161.051 384.665 161.392C384.324 161.712 384.057 162.085 383.865 162.512C383.673 162.939 383.577 163.408 383.577 163.92V174H379.609V164.048C379.609 163.237 379.492 162.565 379.257 162.032C379.023 161.477 378.681 161.061 378.233 160.784C377.785 160.485 377.241 160.336 376.601 160.336C376.068 160.336 375.567 160.432 375.097 160.624C374.628 160.795 374.223 161.04 373.881 161.36C373.54 161.68 373.273 162.053 373.081 162.48C372.889 162.907 372.793 163.376 372.793 163.888V174H368.825Z" fill="#242424"/>
<path d="M356.633 174.32C354.947 174.32 353.443 173.947 352.121 173.2C350.798 172.432 349.753 171.387 348.985 170.064C348.217 168.741 347.833 167.237 347.833 165.552C347.833 163.867 348.217 162.363 348.985 161.04C349.753 159.717 350.798 158.683 352.121 157.936C353.443 157.168 354.947 156.784 356.633 156.784C358.297 156.784 359.79 157.168 361.113 157.936C362.435 158.683 363.47 159.717 364.217 161.04C364.985 162.363 365.369 163.867 365.369 165.552C365.369 167.237 364.985 168.741 364.217 170.064C363.47 171.387 362.435 172.432 361.113 173.2C359.79 173.947 358.297 174.32 356.633 174.32ZM356.633 170.832C357.55 170.832 358.361 170.597 359.065 170.128C359.79 169.659 360.355 169.029 360.761 168.24C361.187 167.451 361.39 166.555 361.369 165.552C361.39 164.528 361.187 163.621 360.761 162.832C360.355 162.043 359.79 161.424 359.065 160.976C358.361 160.507 357.55 160.272 356.633 160.272C355.715 160.272 354.883 160.507 354.137 160.976C353.411 161.424 352.846 162.053 352.441 162.864C352.035 163.653 351.833 164.549 351.833 165.552C351.833 166.555 352.035 167.451 352.441 168.24C352.846 169.029 353.411 169.659 354.137 170.128C354.883 170.597 355.715 170.832 356.633 170.832Z" fill="#242424"/>
<path d="M338.903 174.32C337.324 174.32 335.905 173.936 334.647 173.168C333.388 172.4 332.396 171.355 331.671 170.032C330.945 168.709 330.583 167.216 330.583 165.552C330.583 163.888 330.945 162.395 331.671 161.072C332.396 159.749 333.388 158.704 334.647 157.936C335.905 157.168 337.324 156.784 338.903 156.784C340.417 156.784 341.793 157.072 343.031 157.648C344.268 158.224 345.228 159.024 345.911 160.048L343.735 162.672C343.415 162.224 343.009 161.819 342.519 161.456C342.028 161.093 341.505 160.805 340.951 160.592C340.396 160.379 339.841 160.272 339.287 160.272C338.348 160.272 337.505 160.507 336.759 160.976C336.033 161.424 335.457 162.053 335.031 162.864C334.604 163.653 334.391 164.549 334.391 165.552C334.391 166.555 334.604 167.451 335.031 168.24C335.479 169.029 336.076 169.659 336.823 170.128C337.569 170.597 338.401 170.832 339.319 170.832C339.873 170.832 340.407 170.747 340.919 170.576C341.452 170.384 341.953 170.117 342.423 169.776C342.892 169.435 343.329 169.008 343.735 168.496L345.911 171.152C345.185 172.091 344.183 172.859 342.903 173.456C341.644 174.032 340.311 174.32 338.903 174.32Z" fill="#242424"/>
<path d="M308.101 174.32C306.714 174.32 305.456 173.936 304.325 173.168C303.194 172.4 302.288 171.355 301.605 170.032C300.922 168.709 300.581 167.205 300.581 165.52C300.581 163.835 300.922 162.331 301.605 161.008C302.288 159.685 303.216 158.651 304.389 157.904C305.562 157.157 306.885 156.784 308.357 156.784C309.21 156.784 309.989 156.912 310.693 157.168C311.397 157.403 312.016 157.744 312.549 158.192C313.082 158.64 313.52 159.152 313.861 159.728C314.224 160.304 314.469 160.923 314.597 161.584L313.733 161.36V157.136H317.701V174H313.701V169.968L314.629 169.808C314.48 170.384 314.202 170.949 313.797 171.504C313.413 172.037 312.922 172.517 312.325 172.944C311.749 173.349 311.098 173.68 310.373 173.936C309.669 174.192 308.912 174.32 308.101 174.32ZM309.189 170.832C310.106 170.832 310.917 170.608 311.621 170.16C312.325 169.712 312.869 169.093 313.253 168.304C313.658 167.493 313.861 166.565 313.861 165.52C313.861 164.496 313.658 163.589 313.253 162.8C312.869 162.011 312.325 161.392 311.621 160.944C310.917 160.496 310.106 160.272 309.189 160.272C308.272 160.272 307.461 160.496 306.757 160.944C306.074 161.392 305.541 162.011 305.157 162.8C304.773 163.589 304.581 164.496 304.581 165.52C304.581 166.565 304.773 167.493 305.157 168.304C305.541 169.093 306.074 169.712 306.757 170.16C307.461 170.608 308.272 170.832 309.189 170.832Z" fill="#242424"/>
<path d="M292.806 174V157.136H296.742V174H292.806ZM294.726 153.552C293.937 153.552 293.318 153.36 292.87 152.976C292.443 152.571 292.23 152.005 292.23 151.28C292.23 150.597 292.454 150.043 292.902 149.616C293.35 149.189 293.958 148.976 294.726 148.976C295.537 148.976 296.155 149.179 296.582 149.584C297.03 149.968 297.254 150.533 297.254 151.28C297.254 151.941 297.03 152.485 296.582 152.912C296.134 153.339 295.515 153.552 294.726 153.552Z" fill="#242424"/>
<path d="M278.942 181.36C277.683 181.36 276.425 181.168 275.166 180.784C273.929 180.4 272.926 179.899 272.158 179.28L273.566 176.368C274.014 176.688 274.515 176.965 275.07 177.2C275.625 177.435 276.211 177.616 276.83 177.744C277.47 177.872 278.099 177.936 278.718 177.936C279.849 177.936 280.787 177.755 281.534 177.392C282.302 177.051 282.878 176.517 283.262 175.792C283.646 175.088 283.838 174.203 283.838 173.136V170.032L284.414 170.256C284.286 170.917 283.934 171.547 283.358 172.144C282.782 172.741 282.057 173.232 281.182 173.616C280.307 173.979 279.411 174.16 278.494 174.16C276.894 174.16 275.475 173.787 274.238 173.04C273.022 172.293 272.051 171.28 271.326 170C270.622 168.699 270.27 167.205 270.27 165.52C270.27 163.835 270.622 162.341 271.326 161.04C272.03 159.717 272.99 158.683 274.206 157.936C275.443 157.168 276.83 156.784 278.366 156.784C279.006 156.784 279.625 156.859 280.222 157.008C280.819 157.157 281.363 157.371 281.854 157.648C282.366 157.925 282.825 158.235 283.23 158.576C283.635 158.917 283.966 159.28 284.222 159.664C284.478 160.048 284.638 160.421 284.702 160.784L283.87 161.04L283.934 157.136H287.806V172.848C287.806 174.213 287.603 175.419 287.198 176.464C286.793 177.509 286.206 178.395 285.438 179.12C284.67 179.867 283.742 180.421 282.654 180.784C281.566 181.168 280.329 181.36 278.942 181.36ZM279.102 170.8C280.062 170.8 280.905 170.576 281.63 170.128C282.377 169.68 282.953 169.061 283.358 168.272C283.763 167.483 283.966 166.576 283.966 165.552C283.966 164.507 283.753 163.589 283.326 162.8C282.921 161.989 282.355 161.36 281.63 160.912C280.905 160.464 280.062 160.24 279.102 160.24C278.142 160.24 277.299 160.475 276.574 160.944C275.849 161.392 275.273 162.021 274.846 162.832C274.441 163.621 274.238 164.528 274.238 165.552C274.238 166.555 274.441 167.461 274.846 168.272C275.273 169.061 275.849 169.68 276.574 170.128C277.299 170.576 278.142 170.8 279.102 170.8Z" fill="#242424"/>
<path d="M258.358 174V157.136H262.23L262.294 162.512L261.75 161.296C261.985 160.443 262.39 159.675 262.966 158.992C263.542 158.309 264.203 157.776 264.95 157.392C265.718 156.987 266.518 156.784 267.35 156.784C267.713 156.784 268.054 156.816 268.374 156.88C268.715 156.944 268.993 157.019 269.206 157.104L268.15 161.424C267.915 161.296 267.627 161.189 267.286 161.104C266.945 161.019 266.603 160.976 266.262 160.976C265.729 160.976 265.217 161.083 264.726 161.296C264.257 161.488 263.841 161.765 263.478 162.128C263.115 162.491 262.827 162.917 262.614 163.408C262.422 163.877 262.326 164.411 262.326 165.008V174H258.358Z" fill="#242424"/>
<path d="M247.512 174.32C245.741 174.32 244.173 173.947 242.808 173.2C241.464 172.453 240.408 171.44 239.64 170.16C238.893 168.859 238.52 167.376 238.52 165.712C238.52 164.389 238.733 163.184 239.16 162.096C239.587 161.008 240.173 160.069 240.92 159.28C241.688 158.469 242.595 157.851 243.64 157.424C244.707 156.976 245.869 156.752 247.128 156.752C248.237 156.752 249.272 156.965 250.232 157.392C251.192 157.819 252.024 158.405 252.728 159.152C253.432 159.877 253.965 160.752 254.328 161.776C254.712 162.779 254.893 163.877 254.872 165.072L254.84 166.448H241.176L240.44 163.76H251.544L251.032 164.304V163.6C250.968 162.939 250.755 162.363 250.392 161.872C250.029 161.36 249.56 160.965 248.984 160.688C248.429 160.389 247.811 160.24 247.128 160.24C246.083 160.24 245.197 160.443 244.472 160.848C243.768 161.253 243.235 161.84 242.872 162.608C242.509 163.355 242.328 164.293 242.328 165.424C242.328 166.512 242.552 167.461 243 168.272C243.469 169.083 244.12 169.712 244.952 170.16C245.805 170.587 246.797 170.8 247.928 170.8C248.717 170.8 249.443 170.672 250.104 170.416C250.765 170.16 251.48 169.701 252.248 169.04L254.2 171.76C253.624 172.293 252.963 172.752 252.216 173.136C251.491 173.499 250.723 173.787 249.912 174C249.101 174.213 248.301 174.32 247.512 174.32Z" fill="#242424"/>
<path d="M220.108 174V157.136H223.948L224.012 160.592L223.276 160.976C223.489 160.208 223.905 159.515 224.524 158.896C225.143 158.256 225.879 157.744 226.732 157.36C227.585 156.976 228.46 156.784 229.356 156.784C230.636 156.784 231.703 157.04 232.556 157.552C233.431 158.064 234.081 158.832 234.508 159.856C234.956 160.88 235.18 162.16 235.18 163.696V174H231.244V163.984C231.244 163.131 231.127 162.427 230.892 161.872C230.657 161.296 230.295 160.88 229.804 160.624C229.313 160.347 228.716 160.219 228.012 160.24C227.436 160.24 226.903 160.336 226.412 160.528C225.943 160.699 225.527 160.955 225.164 161.296C224.823 161.616 224.545 161.989 224.332 162.416C224.14 162.843 224.044 163.312 224.044 163.824V174H222.092C221.708 174 221.345 174 221.004 174C220.684 174 220.385 174 220.108 174Z" fill="#242424"/>
<path d="M209.262 174.32C207.491 174.32 205.923 173.947 204.558 173.2C203.214 172.453 202.158 171.44 201.39 170.16C200.643 168.859 200.27 167.376 200.27 165.712C200.27 164.389 200.483 163.184 200.91 162.096C201.337 161.008 201.923 160.069 202.67 159.28C203.438 158.469 204.345 157.851 205.39 157.424C206.457 156.976 207.619 156.752 208.878 156.752C209.987 156.752 211.022 156.965 211.982 157.392C212.942 157.819 213.774 158.405 214.478 159.152C215.182 159.877 215.715 160.752 216.078 161.776C216.462 162.779 216.643 163.877 216.622 165.072L216.59 166.448H202.926L202.19 163.76H213.294L212.782 164.304V163.6C212.718 162.939 212.505 162.363 212.142 161.872C211.779 161.36 211.31 160.965 210.734 160.688C210.179 160.389 209.561 160.24 208.878 160.24C207.833 160.24 206.947 160.443 206.222 160.848C205.518 161.253 204.985 161.84 204.622 162.608C204.259 163.355 204.078 164.293 204.078 165.424C204.078 166.512 204.302 167.461 204.75 168.272C205.219 169.083 205.87 169.712 206.702 170.16C207.555 170.587 208.547 170.8 209.678 170.8C210.467 170.8 211.193 170.672 211.854 170.416C212.515 170.16 213.23 169.701 213.998 169.04L215.95 171.76C215.374 172.293 214.713 172.752 213.966 173.136C213.241 173.499 212.473 173.787 211.662 174C210.851 174.213 210.051 174.32 209.262 174.32Z" fill="#242424"/>
<path d="M181.106 174.32C179.335 174.32 177.767 173.947 176.402 173.2C175.058 172.453 174.002 171.44 173.234 170.16C172.487 168.859 172.114 167.376 172.114 165.712C172.114 164.389 172.327 163.184 172.754 162.096C173.18 161.008 173.767 160.069 174.514 159.28C175.282 158.469 176.188 157.851 177.234 157.424C178.3 156.976 179.463 156.752 180.722 156.752C181.831 156.752 182.866 156.965 183.826 157.392C184.786 157.819 185.618 158.405 186.322 159.152C187.026 159.877 187.559 160.752 187.922 161.776C188.306 162.779 188.487 163.877 188.466 165.072L188.434 166.448H174.77L174.034 163.76H185.138L184.626 164.304V163.6C184.562 162.939 184.348 162.363 183.986 161.872C183.623 161.36 183.154 160.965 182.578 160.688C182.023 160.389 181.404 160.24 180.722 160.24C179.676 160.24 178.791 160.443 178.066 160.848C177.362 161.253 176.828 161.84 176.466 162.608C176.103 163.355 175.922 164.293 175.922 165.424C175.922 166.512 176.146 167.461 176.594 168.272C177.063 169.083 177.714 169.712 178.546 170.16C179.399 170.587 180.391 170.8 181.522 170.8C182.311 170.8 183.036 170.672 183.698 170.416C184.359 170.16 185.074 169.701 185.842 169.04L187.794 171.76C187.218 172.293 186.556 172.752 185.81 173.136C185.084 173.499 184.316 173.787 183.506 174C182.695 174.213 181.895 174.32 181.106 174.32Z" fill="#242424"/>
<path d="M159.486 174.32C157.992 174.32 156.648 173.947 155.454 173.2C154.28 172.432 153.342 171.397 152.638 170.096C151.955 168.773 151.614 167.259 151.614 165.552C151.614 163.867 151.955 162.363 152.638 161.04C153.32 159.717 154.248 158.683 155.422 157.936C156.616 157.168 157.96 156.784 159.454 156.784C160.264 156.784 161.043 156.912 161.79 157.168C162.558 157.424 163.24 157.776 163.838 158.224C164.435 158.651 164.904 159.131 165.246 159.664C165.608 160.197 165.811 160.752 165.854 161.328L164.798 161.456V150.32H168.734V174H164.926L164.83 170.032L165.598 170.096C165.576 170.629 165.384 171.141 165.022 171.632C164.68 172.123 164.232 172.571 163.678 172.976C163.123 173.381 162.472 173.712 161.726 173.968C161 174.203 160.254 174.32 159.486 174.32ZM160.254 170.992C161.171 170.992 161.982 170.757 162.686 170.288C163.39 169.819 163.934 169.179 164.318 168.368C164.723 167.557 164.926 166.619 164.926 165.552C164.926 164.507 164.723 163.579 164.318 162.768C163.934 161.936 163.39 161.296 162.686 160.848C161.982 160.379 161.171 160.144 160.254 160.144C159.336 160.144 158.526 160.379 157.822 160.848C157.118 161.296 156.563 161.936 156.158 162.768C155.774 163.579 155.582 164.507 155.582 165.552C155.582 166.619 155.774 167.557 156.158 168.368C156.563 169.179 157.118 169.819 157.822 170.288C158.526 170.757 159.336 170.992 160.254 170.992Z" fill="#242424"/>
<path d="M131.039 174.32C129.353 174.32 127.849 173.947 126.527 173.2C125.204 172.432 124.159 171.387 123.391 170.064C122.623 168.741 122.239 167.237 122.239 165.552C122.239 163.867 122.623 162.363 123.391 161.04C124.159 159.717 125.204 158.683 126.527 157.936C127.849 157.168 129.353 156.784 131.039 156.784C132.703 156.784 134.196 157.168 135.519 157.936C136.841 158.683 137.876 159.717 138.623 161.04C139.391 162.363 139.775 163.867 139.775 165.552C139.775 167.237 139.391 168.741 138.623 170.064C137.876 171.387 136.841 172.432 135.519 173.2C134.196 173.947 132.703 174.32 131.039 174.32ZM131.039 170.832C131.956 170.832 132.767 170.597 133.471 170.128C134.196 169.659 134.761 169.029 135.167 168.24C135.593 167.451 135.796 166.555 135.775 165.552C135.796 164.528 135.593 163.621 135.167 162.832C134.761 162.043 134.196 161.424 133.471 160.976C132.767 160.507 131.956 160.272 131.039 160.272C130.121 160.272 129.289 160.507 128.543 160.976C127.817 161.424 127.252 162.053 126.847 162.864C126.441 163.653 126.239 164.549 126.239 165.552C126.239 166.555 126.441 167.451 126.847 168.24C127.252 169.029 127.817 169.659 128.543 170.128C129.289 170.597 130.121 170.832 131.039 170.832Z" fill="#242424"/>
<path d="M93.325 174V157.136H97.197L97.261 160.528L96.621 160.784C96.813 160.229 97.101 159.717 97.485 159.248C97.869 158.757 98.328 158.341 98.861 158C99.395 157.637 99.96 157.36 100.557 157.168C101.155 156.955 101.763 156.848 102.381 156.848C103.299 156.848 104.109 156.997 104.813 157.296C105.539 157.573 106.136 158.021 106.605 158.64C107.096 159.259 107.459 160.048 107.693 161.008L107.085 160.88L107.341 160.368C107.576 159.856 107.907 159.397 108.333 158.992C108.76 158.565 109.24 158.192 109.773 157.872C110.307 157.531 110.861 157.275 111.437 157.104C112.035 156.933 112.621 156.848 113.197 156.848C114.477 156.848 115.544 157.104 116.397 157.616C117.251 158.128 117.891 158.907 118.317 159.952C118.744 160.997 118.957 162.288 118.957 163.824V174H114.989V164.08C114.989 163.227 114.872 162.523 114.637 161.968C114.424 161.413 114.083 161.008 113.613 160.752C113.165 160.475 112.6 160.336 111.917 160.336C111.384 160.336 110.872 160.432 110.381 160.624C109.912 160.795 109.507 161.051 109.165 161.392C108.824 161.712 108.557 162.085 108.365 162.512C108.173 162.939 108.077 163.408 108.077 163.92V174H104.109V164.048C104.109 163.237 103.992 162.565 103.757 162.032C103.523 161.477 103.181 161.061 102.733 160.784C102.285 160.485 101.741 160.336 101.101 160.336C100.568 160.336 100.067 160.432 99.597 160.624C99.128 160.795 98.723 161.04 98.381 161.36C98.04 161.68 97.773 162.053 97.581 162.48C97.389 162.907 97.293 163.376 97.293 163.888V174H93.325Z" fill="#242424"/>
<path d="M79.464 174.32C78.248 174.32 77.192 174.053 76.296 173.52C75.4 172.965 74.717 172.187 74.248 171.184C73.779 170.16 73.544 168.944 73.544 167.536V157.136H77.48V166.704C77.48 167.6 77.619 168.368 77.896 169.008C78.173 169.627 78.579 170.107 79.112 170.448C79.645 170.789 80.285 170.96 81.032 170.96C81.587 170.96 82.088 170.875 82.536 170.704C83.005 170.512 83.411 170.256 83.752 169.936C84.093 169.595 84.36 169.2 84.552 168.752C84.744 168.283 84.84 167.781 84.84 167.248V157.136H88.776V174H84.936L84.872 170.48L85.576 170.096C85.32 170.907 84.883 171.632 84.264 172.272C83.667 172.891 82.952 173.392 82.12 173.776C81.288 174.139 80.403 174.32 79.464 174.32Z" fill="#242424"/>
<path d="M63.709 174.32C62.216 174.32 60.872 174.075 59.677 173.584C58.504 173.072 57.544 172.347 56.797 171.408L59.357 169.2C59.997 169.925 60.712 170.448 61.501 170.768C62.29 171.088 63.122 171.248 63.997 171.248C64.36 171.248 64.68 171.205 64.957 171.12C65.256 171.035 65.512 170.907 65.725 170.736C65.938 170.565 66.098 170.373 66.205 170.16C66.333 169.925 66.397 169.669 66.397 169.392C66.397 168.88 66.205 168.475 65.821 168.176C65.608 168.027 65.266 167.867 64.797 167.696C64.349 167.525 63.762 167.355 63.037 167.184C61.885 166.885 60.925 166.544 60.157 166.16C59.389 165.755 58.792 165.307 58.365 164.816C58.002 164.411 57.725 163.952 57.533 163.44C57.362 162.928 57.277 162.373 57.277 161.776C57.277 161.029 57.437 160.357 57.757 159.76C58.098 159.141 58.557 158.608 59.133 158.16C59.709 157.712 60.381 157.371 61.149 157.136C61.917 156.901 62.717 156.784 63.549 156.784C64.402 156.784 65.224 156.891 66.013 157.104C66.824 157.317 67.57 157.627 68.253 158.032C68.957 158.416 69.554 158.885 70.045 159.44L67.869 161.84C67.464 161.456 67.016 161.115 66.525 160.816C66.056 160.517 65.576 160.283 65.085 160.112C64.594 159.92 64.136 159.824 63.709 159.824C63.304 159.824 62.941 159.867 62.621 159.952C62.301 160.016 62.034 160.123 61.821 160.272C61.608 160.421 61.437 160.613 61.309 160.848C61.202 161.061 61.149 161.317 61.149 161.616C61.17 161.872 61.234 162.117 61.341 162.352C61.469 162.565 61.64 162.747 61.853 162.896C62.088 163.045 62.44 163.216 62.909 163.408C63.378 163.6 63.986 163.781 64.733 163.952C65.778 164.229 66.653 164.539 67.357 164.88C68.061 165.221 68.616 165.616 69.021 166.064C69.426 166.448 69.714 166.896 69.885 167.408C70.056 167.92 70.141 168.485 70.141 169.104C70.141 170.107 69.853 171.003 69.277 171.792C68.722 172.581 67.954 173.2 66.973 173.648C66.013 174.096 64.925 174.32 63.709 174.32Z" fill="#242424"/>
<path d="M38.577 174V157.136H42.417L42.481 160.592L41.745 160.976C41.958 160.208 42.374 159.515 42.993 158.896C43.611 158.256 44.347 157.744 45.201 157.36C46.054 156.976 46.929 156.784 47.825 156.784C49.105 156.784 50.171 157.04 51.025 157.552C51.899 158.064 52.55 158.832 52.977 159.856C53.425 160.88 53.649 162.16 53.649 163.696V174H49.713V163.984C49.713 163.131 49.595 162.427 49.361 161.872C49.126 161.296 48.763 160.88 48.273 160.624C47.782 160.347 47.185 160.219 46.481 160.24C45.905 160.24 45.371 160.336 44.881 160.528C44.411 160.699 43.995 160.955 43.633 161.296C43.291 161.616 43.014 161.989 42.801 162.416C42.609 162.843 42.513 163.312 42.513 163.824V174H40.561C40.177 174 39.814 174 39.473 174C39.153 174 38.854 174 38.577 174Z" fill="#242424"/>
<path d="M26.32 174.32C24.635 174.32 23.131 173.947 21.808 173.2C20.485 172.432 19.44 171.387 18.672 170.064C17.904 168.741 17.52 167.237 17.52 165.552C17.52 163.867 17.904 162.363 18.672 161.04C19.44 159.717 20.485 158.683 21.808 157.936C23.131 157.168 24.635 156.784 26.32 156.784C27.984 156.784 29.477 157.168 30.8 157.936C32.123 158.683 33.157 159.717 33.904 161.04C34.672 162.363 35.056 163.867 35.056 165.552C35.056 167.237 34.672 168.741 33.904 170.064C33.157 171.387 32.123 172.432 30.8 173.2C29.477 173.947 27.984 174.32 26.32 174.32ZM26.32 170.832C27.237 170.832 28.048 170.597 28.752 170.128C29.477 169.659 30.043 169.029 30.448 168.24C30.875 167.451 31.077 166.555 31.056 165.552C31.077 164.528 30.875 163.621 30.448 162.832C30.043 162.043 29.477 161.424 28.752 160.976C28.048 160.507 27.237 160.272 26.32 160.272C25.403 160.272 24.571 160.507 23.824 160.976C23.099 161.424 22.533 162.053 22.128 162.864C21.723 163.653 21.52 164.549 21.52 165.552C21.52 166.555 21.723 167.451 22.128 168.24C22.533 169.029 23.099 169.659 23.824 170.128C24.571 170.597 25.403 170.832 26.32 170.832Z" fill="#242424"/>
<path d="M8.59 174.32C7.011 174.32 5.59301 173.936 4.33401 173.168C3.07501 172.4 2.083 171.355 1.358 170.032C0.633002 168.709 0.269989 167.216 0.269989 165.552C0.269989 163.888 0.633002 162.395 1.358 161.072C2.083 159.749 3.07501 158.704 4.33401 157.936C5.59301 157.168 7.011 156.784 8.59 156.784C10.105 156.784 11.481 157.072 12.718 157.648C13.955 158.224 14.915 159.024 15.598 160.048L13.422 162.672C13.102 162.224 12.697 161.819 12.206 161.456C11.715 161.093 11.193 160.805 10.638 160.592C10.083 160.379 9.529 160.272 8.974 160.272C8.035 160.272 7.19301 160.507 6.44601 160.976C5.72101 161.424 5.14499 162.053 4.71799 162.864C4.29099 163.653 4.078 164.549 4.078 165.552C4.078 166.555 4.29099 167.451 4.71799 168.24C5.16599 169.029 5.76301 169.659 6.51001 170.128C7.25701 170.597 8.08901 170.832 9.00601 170.832C9.56101 170.832 10.094 170.747 10.606 170.576C11.139 170.384 11.641 170.117 12.11 169.776C12.579 169.435 13.017 169.008 13.422 168.496L15.598 171.152C14.873 172.091 13.87 172.859 12.59 173.456C11.331 174.032 9.998 174.32 8.59 174.32Z" fill="#242424"/>
</g>
<defs>
<clipPath id="clip0_3_2">
<rect width="573" height="174" fill="white"/>
</clipPath>
</defs>
</svg>
