<svg width="126" height="42" viewBox="0 0 126 42" fill="none" xmlns="http://www.w3.org/2000/svg">
<path d="M104.311 31.2461L112.452 11.1819H117.377L125.46 31.2461H119.261L116.016 22.4752C115.803 21.8828 115.62 21.3764 115.465 20.956C115.311 20.5356 115.176 20.1439 115.06 19.7808C114.944 19.3986 114.828 18.9974 114.712 18.577C114.596 18.1375 114.48 17.6215 114.364 17.0291H115.349C115.234 17.6215 115.118 18.1375 115.002 18.577C114.886 18.9974 114.76 19.3986 114.625 19.7808C114.509 20.1439 114.364 20.5356 114.191 20.956C114.036 21.3764 113.853 21.8828 113.64 22.4752L110.395 31.2461H104.311ZM108.367 28.2651L110.193 24.0516H119.608L121.259 28.2651H108.367Z" fill="white"/>
<path d="M86.4163 31.2461V11.1819H95.2151C96.5558 11.1819 97.7476 11.478 98.7904 12.0704C99.8333 12.6628 100.653 13.4749 101.249 14.5068C101.844 15.5387 102.142 16.7234 102.142 18.061C102.142 19.456 101.844 20.698 101.249 21.7872C100.653 22.8764 99.8333 23.7363 98.7904 24.3669C97.7476 24.9784 96.5558 25.2842 95.2151 25.2842H92.4498V31.2461H86.4163ZM92.338 20.0101H94.0978C94.4516 20.0101 94.7682 19.9432 95.0475 19.8095C95.3268 19.6566 95.541 19.4464 95.6899 19.1789C95.8575 18.9114 95.9413 18.577 95.9413 18.1757C95.9413 17.7744 95.8575 17.4495 95.6899 17.2011C95.541 16.9527 95.3268 16.7712 95.0475 16.6565C94.7682 16.5228 94.4516 16.4559 94.0978 16.4559H92.338V20.0101Z" fill="white"/>
<path d="M66.3521 31.2461V11.1819H80.5065V16.1979H71.9543V26.23H80.9936V31.2461H66.3521ZM69.1397 23.4497V18.7489H79.5051V23.4497H69.1397Z" fill="white"/>
<path d="M39.7805 31.2461V11.1819H45.1839L52.5918 23.0771L48.2052 23.0484L55.7002 11.1819H60.9293V31.2461H54.8868V26.4593C54.8868 24.7395 54.9255 23.1917 55.003 21.8159C55.0998 20.4401 55.2548 19.0738 55.4678 17.7171L56.165 19.5228L51.2555 27.0326H49.3381L44.5158 19.5228L45.242 17.7171C45.4551 18.9974 45.6003 20.3159 45.6778 21.6726C45.7746 23.0102 45.823 24.6058 45.823 26.4593V31.2461H39.7805Z" fill="white"/>
<path d="M18.377 41L0.999985 31.2732L18.377 21L34.9891 31.2732L18.377 41Z" fill="white" stroke="#0A5C67"/>
<path d="M0.999985 11.1639V31.2732L18.377 21L0.999985 11.1639Z" fill="white" stroke="#0A5C67"/>
<path fill-rule="evenodd" clip-rule="evenodd" d="M1 11.1639L18.377 21L34.9891 31.2732L34.9891 11.1639L18.377 1L1 11.1639Z" fill="white"/>
<path d="M18.377 21L18.64 20.5747L18.6318 20.5696L18.6233 20.5649L18.377 21ZM1 11.1639L0.747558 10.7323L-0.00247443 11.171L0.753701 11.5991L1 11.1639ZM34.9891 31.2732L34.7261 31.6985L35.4891 32.1703V31.2732H34.9891ZM34.9891 11.1639H35.4891V10.8837L35.25 10.7374L34.9891 11.1639ZM18.377 1L18.638 0.573498L18.3828 0.417372L18.1246 0.568406L18.377 1ZM18.6233 20.5649L1.2463 10.7288L0.753701 11.5991L18.1307 21.4351L18.6233 20.5649ZM35.252 30.848L18.64 20.5747L18.1141 21.4253L34.7261 31.6985L35.252 30.848ZM34.4891 11.1639L34.4891 31.2732H35.4891L35.4891 11.1639H34.4891ZM18.1161 1.4265L34.7281 11.5904L35.25 10.7374L18.638 0.573498L18.1161 1.4265ZM1.25244 11.5955L18.6295 1.43159L18.1246 0.568406L0.747558 10.7323L1.25244 11.5955Z" fill="#0A5C67"/>
</svg>
