<svg width="139" height="38" viewBox="0 0 139 38" fill="none" xmlns="http://www.w3.org/2000/svg">
<path d="M0.125854 38.0001V6.23871C14.6453 19.397 30.3748 23.4428 36.4245 23.8209V38.0001H0.125854Z" fill="white"/>
<path d="M75.5591 38.0001V6.23871C61.0396 19.397 45.3102 23.4428 39.2604 23.8209V38.0001H75.5591Z" fill="white"/>
<path d="M36.4245 -3.05176e-05H0.125854V2.8358C17.3677 17.3553 31.5091 20.9851 36.4245 20.9851V-3.05176e-05Z" fill="white"/>
<path d="M39.2604 -3.05176e-05H75.5591V2.8358C58.3172 17.3553 44.1759 20.9851 39.2604 20.9851V-3.05176e-05Z" fill="white"/>
<path d="M121.261 29.4815V8.33725H130.594C132.044 8.33725 133.273 8.54869 134.28 8.97158C135.286 9.37433 136.042 9.96838 136.545 10.7537C137.069 11.519 137.33 12.4453 137.33 13.5327C137.33 14.741 137.028 15.7579 136.424 16.5835C135.84 17.4092 134.984 17.9629 133.857 18.2449L133.796 17.6709C134.743 17.8723 135.558 18.2247 136.243 18.7282C136.948 19.2316 137.492 19.8559 137.874 20.6009C138.257 21.3259 138.448 22.1515 138.448 23.0778C138.448 24.1451 138.267 25.0815 137.904 25.887C137.542 26.6724 137.018 27.3369 136.334 27.8806C135.649 28.4243 134.843 28.8271 133.917 29.0889C133.011 29.3506 132.004 29.4815 130.896 29.4815H121.261ZM126.094 25.1923H130.715C131.279 25.1923 131.752 25.1017 132.135 24.9204C132.538 24.7392 132.85 24.4774 133.071 24.1351C133.293 23.7726 133.404 23.3396 133.404 22.8362C133.404 22.373 133.283 21.9804 133.041 21.6582C132.82 21.336 132.497 21.0943 132.075 20.9332C131.652 20.752 131.148 20.6614 130.564 20.6614H126.094V25.1923ZM126.094 16.8252H129.869C130.393 16.8252 130.836 16.7446 131.199 16.5835C131.581 16.4023 131.863 16.1606 132.044 15.8586C132.246 15.5364 132.346 15.1538 132.346 14.7107C132.346 14.0663 132.125 13.5629 131.682 13.2004C131.239 12.8178 130.574 12.6265 129.688 12.6265H126.094V16.8252Z" fill="white"/>
<path d="M103.111 29.2463V13.2068H107.703L107.854 16.4691L106.887 16.8316C107.109 16.1066 107.501 15.4522 108.065 14.8682C108.649 14.2641 109.344 13.7808 110.149 13.4183C110.955 13.0558 111.801 12.8746 112.687 12.8746C113.895 12.8746 114.912 13.1263 115.738 13.6297C116.563 14.113 117.188 14.848 117.61 15.8348C118.033 16.8014 118.245 17.9895 118.245 19.3991V29.2463H113.382V19.7918C113.382 19.1474 113.291 18.6137 113.11 18.1909C112.928 17.768 112.647 17.4558 112.264 17.2545C111.901 17.033 111.448 16.9323 110.905 16.9524C110.482 16.9524 110.089 17.0229 109.727 17.1638C109.364 17.2847 109.052 17.476 108.79 17.7378C108.528 17.9794 108.317 18.2613 108.156 18.5835C108.015 18.9057 107.944 19.2581 107.944 19.6407V29.2463H105.558C104.994 29.2463 104.511 29.2463 104.108 29.2463C103.706 29.2463 103.373 29.2463 103.111 29.2463Z" fill="white"/>
<path d="M90.6209 29.6628C88.869 29.6628 87.3083 29.3104 85.939 28.6056C84.5696 27.8806 83.4923 26.8939 82.7069 25.6454C81.9417 24.3968 81.5591 22.9671 81.5591 21.3561V8.33725H86.7545V21.0842C86.7545 21.8495 86.9257 22.5442 87.268 23.1685C87.6104 23.7726 88.0735 24.2559 88.6575 24.6184C89.2415 24.9607 89.896 25.1319 90.6209 25.1319C91.3861 25.1319 92.0607 24.9607 92.6447 24.6184C93.2489 24.2559 93.7322 23.7726 94.0946 23.1685C94.4571 22.5442 94.6383 21.8495 94.6383 21.0842V8.33725H99.6526V21.3561C99.6526 22.9671 99.2599 24.3968 98.4745 25.6454C97.7093 26.8939 96.642 27.8806 95.2727 28.6056C93.9033 29.3104 92.3527 29.6628 90.6209 29.6628Z" fill="white"/>
</svg>
