<svg width="836" height="268" viewBox="0 0 836 268" fill="none" xmlns="http://www.w3.org/2000/svg">

<!-- MEPA -->
<path d="M693.971 202L748.34 68H781.232L835.214 202H793.808L772.138 143.423C770.719 139.467 769.494 136.085 768.462 133.277C767.43 130.47 766.527 127.853 765.753 125.429C764.979 122.876 764.205 120.196 763.431 117.389C762.657 114.453 761.884 111.008 761.11 107.051H767.688C766.914 111.008 766.14 114.453 765.366 117.389C764.592 120.196 763.754 122.876 762.851 125.429C762.077 127.853 761.11 130.47 759.949 133.277C758.917 136.085 757.691 139.467 756.273 143.423L734.602 202H693.971ZM721.058 182.091L733.248 153.951H796.13L807.159 182.091H721.058Z" fill="#242424"/>
<path d="M574.457 202V68H633.22C642.174 68 650.133 69.9781 657.098 73.9343C664.062 77.8905 669.535 83.3143 673.514 90.2057C677.494 97.0971 679.484 105.01 679.484 113.943C679.484 123.259 677.494 131.554 673.514 138.829C669.535 146.103 664.062 151.846 657.098 156.057C650.133 160.141 642.174 162.183 633.22 162.183H614.751V202H574.457ZM614.005 126.96H625.758C628.121 126.96 630.235 126.513 632.1 125.62C633.966 124.599 635.396 123.195 636.391 121.409C637.51 119.622 638.07 117.389 638.07 114.709C638.07 112.029 637.51 109.859 636.391 108.2C635.396 106.541 633.966 105.329 632.1 104.563C630.235 103.67 628.121 103.223 625.758 103.223H614.005V126.96Z" fill="#242424"/>
<path d="M440.458 202V68H534.988V101.5H477.872V168.5H538.241V202H440.458ZM459.074 149.931V118.537H528.3V149.931H459.074Z" fill="#242424"/>
<path d="M262.998 202V68H299.084L348.558 147.443L319.262 147.251L369.318 68H404.241V202H363.886V170.031C363.886 158.546 364.144 148.209 364.662 139.02C365.308 129.831 366.343 120.707 367.766 111.646L372.422 123.706L339.634 173.86H326.829L294.622 123.706L299.472 111.646C300.895 120.196 301.865 129.002 302.383 138.063C303.029 146.996 303.353 157.652 303.353 170.031V202H262.998Z" fill="#242424"/>
<!-- FIM -->

<!-- cores do logo -->
<path d="M116.053 267.142L0 202.181L116.053 133.571L226.998 202.181L116.053 267.142Z" fill="#0A5C67"/>
<path d="M0 67.8803V202.181L116.053 133.571L0 67.8803Z" fill="#003A7A"/>
<path fill-rule="evenodd" clip-rule="evenodd" d="M0 67.8803L116.053 133.571L226.998 202.181L226.998 67.8803L116.053 0L0 67.8803Z" fill="#FAAD10"/>
<!-- FIm -->

<!-- consumo de energia com sabedoria -->
<path d="M816.195 242.32C814.808 242.32 813.549 241.936 812.419 241.168C811.288 240.4 810.382 239.355 809.699 238.032C809.016 236.709 808.675 235.205 808.675 233.52C808.675 231.835 809.016 230.331 809.699 229.008C810.382 227.685 811.31 226.651 812.483 225.904C813.656 225.157 814.979 224.784 816.451 224.784C817.304 224.784 818.083 224.912 818.787 225.168C819.491 225.403 820.109 225.744 820.643 226.192C821.176 226.64 821.614 227.152 821.955 227.728C822.318 228.304 822.563 228.923 822.691 229.584L821.827 229.36V225.136H825.795V242H821.795V237.968L822.723 237.808C822.574 238.384 822.296 238.949 821.891 239.504C821.507 240.037 821.016 240.517 820.419 240.944C819.843 241.349 819.192 241.68 818.467 241.936C817.763 242.192 817.005 242.32 816.195 242.32ZM817.283 238.832C818.2 238.832 819.011 238.608 819.715 238.16C820.419 237.712 820.963 237.093 821.347 236.304C821.752 235.493 821.955 234.565 821.955 233.52C821.955 232.496 821.752 231.589 821.347 230.8C820.963 230.011 820.419 229.392 819.715 228.944C819.011 228.496 818.2 228.272 817.283 228.272C816.366 228.272 815.555 228.496 814.851 228.944C814.168 229.392 813.635 230.011 813.251 230.8C812.867 231.589 812.675 232.496 812.675 233.52C812.675 234.565 812.867 235.493 813.251 236.304C813.635 237.093 814.168 237.712 814.851 238.16C815.555 238.608 816.366 238.832 817.283 238.832Z" fill="#242424"/>
<path d="M800.9 242V225.136H804.836V242H800.9ZM802.82 221.552C802.03 221.552 801.412 221.36 800.964 220.976C800.537 220.571 800.324 220.005 800.324 219.28C800.324 218.597 800.548 218.043 800.996 217.616C801.444 217.189 802.052 216.976 802.82 216.976C803.63 216.976 804.249 217.179 804.676 217.584C805.124 217.968 805.348 218.533 805.348 219.28C805.348 219.941 805.124 220.485 804.676 220.912C804.228 221.339 803.609 221.552 802.82 221.552Z" fill="#242424"/>
<path d="M786.983 242V225.136H790.855L790.919 230.512L790.375 229.296C790.61 228.443 791.015 227.675 791.591 226.992C792.167 226.309 792.828 225.776 793.575 225.392C794.343 224.987 795.143 224.784 795.975 224.784C796.338 224.784 796.679 224.816 796.999 224.88C797.34 224.944 797.618 225.019 797.831 225.104L796.775 229.424C796.54 229.296 796.252 229.189 795.911 229.104C795.57 229.019 795.228 228.976 794.887 228.976C794.354 228.976 793.842 229.083 793.351 229.296C792.882 229.488 792.466 229.765 792.103 230.128C791.74 230.491 791.452 230.917 791.239 231.408C791.047 231.877 790.951 232.411 790.951 233.008V242H786.983Z" fill="#242424"/>
<path d="M774.726 242.32C773.041 242.32 771.537 241.947 770.214 241.2C768.892 240.432 767.846 239.387 767.078 238.064C766.31 236.741 765.926 235.237 765.926 233.552C765.926 231.867 766.31 230.363 767.078 229.04C767.846 227.717 768.892 226.683 770.214 225.936C771.537 225.168 773.041 224.784 774.726 224.784C776.39 224.784 777.884 225.168 779.206 225.936C780.529 226.683 781.564 227.717 782.31 229.04C783.078 230.363 783.462 231.867 783.462 233.552C783.462 235.237 783.078 236.741 782.31 238.064C781.564 239.387 780.529 240.432 779.206 241.2C777.884 241.947 776.39 242.32 774.726 242.32ZM774.726 238.832C775.644 238.832 776.454 238.597 777.158 238.128C777.884 237.659 778.449 237.029 778.854 236.24C779.281 235.451 779.484 234.555 779.462 233.552C779.484 232.528 779.281 231.621 778.854 230.832C778.449 230.043 777.884 229.424 777.158 228.976C776.454 228.507 775.644 228.272 774.726 228.272C773.809 228.272 772.977 228.507 772.23 228.976C771.505 229.424 770.94 230.053 770.534 230.864C770.129 231.653 769.926 232.549 769.926 233.552C769.926 234.555 770.129 235.451 770.534 236.24C770.94 237.029 771.505 237.659 772.23 238.128C772.977 238.597 773.809 238.832 774.726 238.832Z" fill="#242424"/>
<path d="M753.298 242.32C751.805 242.32 750.461 241.947 749.266 241.2C748.093 240.432 747.154 239.397 746.45 238.096C745.768 236.773 745.426 235.259 745.426 233.552C745.426 231.867 745.768 230.363 746.45 229.04C747.133 227.717 748.061 226.683 749.234 225.936C750.429 225.168 751.773 224.784 753.266 224.784C754.077 224.784 754.856 224.912 755.602 225.168C756.37 225.424 757.053 225.776 757.65 226.224C758.248 226.651 758.717 227.131 759.058 227.664C759.421 228.197 759.624 228.752 759.666 229.328L758.61 229.456V218.32H762.546V242H758.738L758.642 238.032L759.41 238.096C759.389 238.629 759.197 239.141 758.834 239.632C758.493 240.123 758.045 240.571 757.49 240.976C756.936 241.381 756.285 241.712 755.538 241.968C754.813 242.203 754.066 242.32 753.298 242.32ZM754.066 238.992C754.984 238.992 755.794 238.757 756.498 238.288C757.202 237.819 757.746 237.179 758.13 236.368C758.536 235.557 758.738 234.619 758.738 233.552C758.738 232.507 758.536 231.579 758.13 230.768C757.746 229.936 757.202 229.296 756.498 228.848C755.794 228.379 754.984 228.144 754.066 228.144C753.149 228.144 752.338 228.379 751.634 228.848C750.93 229.296 750.376 229.936 749.97 230.768C749.586 231.579 749.394 232.507 749.394 233.552C749.394 234.619 749.586 235.557 749.97 236.368C750.376 237.179 750.93 237.819 751.634 238.288C752.338 238.757 753.149 238.992 754.066 238.992Z" fill="#242424"/>
<path d="M735.668 242.32C733.898 242.32 732.33 241.947 730.964 241.2C729.62 240.453 728.564 239.44 727.796 238.16C727.05 236.859 726.676 235.376 726.676 233.712C726.676 232.389 726.89 231.184 727.316 230.096C727.743 229.008 728.33 228.069 729.076 227.28C729.844 226.469 730.751 225.851 731.796 225.424C732.863 224.976 734.026 224.752 735.284 224.752C736.394 224.752 737.428 224.965 738.388 225.392C739.348 225.819 740.18 226.405 740.884 227.152C741.588 227.877 742.122 228.752 742.484 229.776C742.868 230.779 743.05 231.877 743.028 233.072L742.996 234.448H729.332L728.596 231.76H739.7L739.188 232.304V231.6C739.124 230.939 738.911 230.363 738.548 229.872C738.186 229.36 737.716 228.965 737.14 228.688C736.586 228.389 735.967 228.24 735.284 228.24C734.239 228.24 733.354 228.443 732.628 228.848C731.924 229.253 731.391 229.84 731.028 230.608C730.666 231.355 730.484 232.293 730.484 233.424C730.484 234.512 730.708 235.461 731.156 236.272C731.626 237.083 732.276 237.712 733.108 238.16C733.962 238.587 734.954 238.8 736.084 238.8C736.874 238.8 737.599 238.672 738.26 238.416C738.922 238.16 739.636 237.701 740.404 237.04L742.356 239.76C741.78 240.293 741.119 240.752 740.372 241.136C739.647 241.499 738.879 241.787 738.068 242C737.258 242.213 736.458 242.32 735.668 242.32Z" fill="#242424"/>
<path d="M716.607 242.32C715.861 242.32 715.125 242.213 714.399 242C713.695 241.765 713.055 241.456 712.479 241.072C711.903 240.688 711.423 240.261 711.039 239.792C710.655 239.301 710.399 238.811 710.271 238.32L711.199 237.904L711.103 241.936H707.295V218.32H711.231V229.04L710.527 228.72C710.634 228.208 710.869 227.728 711.231 227.28C711.615 226.811 712.085 226.395 712.639 226.032C713.194 225.648 713.802 225.349 714.463 225.136C715.125 224.901 715.797 224.784 716.479 224.784C717.994 224.784 719.327 225.157 720.479 225.904C721.653 226.651 722.57 227.685 723.231 229.008C723.914 230.331 724.255 231.835 724.255 233.52C724.255 235.227 723.925 236.741 723.263 238.064C722.602 239.387 721.685 240.432 720.511 241.2C719.359 241.947 718.058 242.32 716.607 242.32ZM715.775 238.864C716.671 238.864 717.471 238.64 718.175 238.192C718.879 237.723 719.434 237.093 719.839 236.304C720.245 235.493 720.447 234.565 720.447 233.52C720.447 232.496 720.245 231.589 719.839 230.8C719.455 230.011 718.911 229.392 718.207 228.944C717.503 228.496 716.693 228.272 715.775 228.272C714.858 228.272 714.047 228.496 713.343 228.944C712.639 229.392 712.085 230.011 711.679 230.8C711.274 231.589 711.071 232.496 711.071 233.52C711.071 234.565 711.274 235.493 711.679 236.304C712.085 237.093 712.639 237.723 713.343 238.192C714.047 238.64 714.858 238.864 715.775 238.864Z" fill="#242424"/>
<path d="M693.132 242.32C691.746 242.32 690.487 241.936 689.356 241.168C688.226 240.4 687.319 239.355 686.636 238.032C685.954 236.709 685.612 235.205 685.612 233.52C685.612 231.835 685.954 230.331 686.636 229.008C687.319 227.685 688.247 226.651 689.42 225.904C690.594 225.157 691.916 224.784 693.388 224.784C694.242 224.784 695.02 224.912 695.724 225.168C696.428 225.403 697.047 225.744 697.58 226.192C698.114 226.64 698.551 227.152 698.892 227.728C699.255 228.304 699.5 228.923 699.628 229.584L698.764 229.36V225.136H702.732V242H698.732V237.968L699.66 237.808C699.511 238.384 699.234 238.949 698.828 239.504C698.444 240.037 697.954 240.517 697.356 240.944C696.78 241.349 696.13 241.68 695.404 241.936C694.7 242.192 693.943 242.32 693.132 242.32ZM694.22 238.832C695.138 238.832 695.948 238.608 696.652 238.16C697.356 237.712 697.9 237.093 698.284 236.304C698.69 235.493 698.892 234.565 698.892 233.52C698.892 232.496 698.69 231.589 698.284 230.8C697.9 230.011 697.356 229.392 696.652 228.944C695.948 228.496 695.138 228.272 694.22 228.272C693.303 228.272 692.492 228.496 691.788 228.944C691.106 229.392 690.572 230.011 690.188 230.8C689.804 231.589 689.612 232.496 689.612 233.52C689.612 234.565 689.804 235.493 690.188 236.304C690.572 237.093 691.106 237.712 691.788 238.16C692.492 238.608 693.303 238.832 694.22 238.832Z" fill="#242424"/>
<path d="M676.865 242.32C675.372 242.32 674.028 242.075 672.833 241.584C671.66 241.072 670.7 240.347 669.953 239.408L672.513 237.2C673.153 237.925 673.868 238.448 674.657 238.768C675.446 239.088 676.278 239.248 677.153 239.248C677.516 239.248 677.836 239.205 678.113 239.12C678.412 239.035 678.668 238.907 678.881 238.736C679.094 238.565 679.254 238.373 679.361 238.16C679.489 237.925 679.553 237.669 679.553 237.392C679.553 236.88 679.361 236.475 678.977 236.176C678.764 236.027 678.422 235.867 677.953 235.696C677.505 235.525 676.918 235.355 676.193 235.184C675.041 234.885 674.081 234.544 673.313 234.16C672.545 233.755 671.948 233.307 671.521 232.816C671.158 232.411 670.881 231.952 670.689 231.44C670.518 230.928 670.433 230.373 670.433 229.776C670.433 229.029 670.593 228.357 670.913 227.76C671.254 227.141 671.713 226.608 672.289 226.16C672.865 225.712 673.537 225.371 674.305 225.136C675.073 224.901 675.873 224.784 676.705 224.784C677.558 224.784 678.38 224.891 679.169 225.104C679.98 225.317 680.726 225.627 681.409 226.032C682.113 226.416 682.71 226.885 683.201 227.44L681.025 229.84C680.62 229.456 680.172 229.115 679.681 228.816C679.212 228.517 678.732 228.283 678.241 228.112C677.75 227.92 677.292 227.824 676.865 227.824C676.46 227.824 676.097 227.867 675.777 227.952C675.457 228.016 675.19 228.123 674.977 228.272C674.764 228.421 674.593 228.613 674.465 228.848C674.358 229.061 674.305 229.317 674.305 229.616C674.326 229.872 674.39 230.117 674.497 230.352C674.625 230.565 674.796 230.747 675.009 230.896C675.244 231.045 675.596 231.216 676.065 231.408C676.534 231.6 677.142 231.781 677.889 231.952C678.934 232.229 679.809 232.539 680.513 232.88C681.217 233.221 681.772 233.616 682.177 234.064C682.582 234.448 682.87 234.896 683.041 235.408C683.212 235.92 683.297 236.485 683.297 237.104C683.297 238.107 683.009 239.003 682.433 239.792C681.878 240.581 681.11 241.2 680.129 241.648C679.169 242.096 678.081 242.32 676.865 242.32Z" fill="#242424"/>
<path d="M631.825 242V225.136H635.697L635.761 228.528L635.121 228.784C635.313 228.229 635.601 227.717 635.985 227.248C636.369 226.757 636.828 226.341 637.361 226C637.895 225.637 638.46 225.36 639.057 225.168C639.655 224.955 640.263 224.848 640.881 224.848C641.799 224.848 642.609 224.997 643.313 225.296C644.039 225.573 644.636 226.021 645.105 226.64C645.596 227.259 645.959 228.048 646.193 229.008L645.585 228.88L645.841 228.368C646.076 227.856 646.407 227.397 646.833 226.992C647.26 226.565 647.74 226.192 648.273 225.872C648.807 225.531 649.361 225.275 649.937 225.104C650.535 224.933 651.121 224.848 651.697 224.848C652.977 224.848 654.044 225.104 654.897 225.616C655.751 226.128 656.391 226.907 656.817 227.952C657.244 228.997 657.457 230.288 657.457 231.824V242H653.489V232.08C653.489 231.227 653.372 230.523 653.137 229.968C652.924 229.413 652.583 229.008 652.113 228.752C651.665 228.475 651.1 228.336 650.417 228.336C649.884 228.336 649.372 228.432 648.881 228.624C648.412 228.795 648.007 229.051 647.665 229.392C647.324 229.712 647.057 230.085 646.865 230.512C646.673 230.939 646.577 231.408 646.577 231.92V242H642.609V232.048C642.609 231.237 642.492 230.565 642.257 230.032C642.023 229.477 641.681 229.061 641.233 228.784C640.785 228.485 640.241 228.336 639.601 228.336C639.068 228.336 638.567 228.432 638.097 228.624C637.628 228.795 637.223 229.04 636.881 229.36C636.54 229.68 636.273 230.053 636.081 230.48C635.889 230.907 635.793 231.376 635.793 231.888V242H631.825Z" fill="#242424"/>
<path d="M619.633 242.32C617.947 242.32 616.443 241.947 615.121 241.2C613.798 240.432 612.753 239.387 611.985 238.064C611.217 236.741 610.833 235.237 610.833 233.552C610.833 231.867 611.217 230.363 611.985 229.04C612.753 227.717 613.798 226.683 615.121 225.936C616.443 225.168 617.947 224.784 619.633 224.784C621.297 224.784 622.79 225.168 624.113 225.936C625.435 226.683 626.47 227.717 627.217 229.04C627.985 230.363 628.369 231.867 628.369 233.552C628.369 235.237 627.985 236.741 627.217 238.064C626.47 239.387 625.435 240.432 624.113 241.2C622.79 241.947 621.297 242.32 619.633 242.32ZM619.633 238.832C620.55 238.832 621.361 238.597 622.065 238.128C622.79 237.659 623.355 237.029 623.761 236.24C624.187 235.451 624.39 234.555 624.369 233.552C624.39 232.528 624.187 231.621 623.761 230.832C623.355 230.043 622.79 229.424 622.065 228.976C621.361 228.507 620.55 228.272 619.633 228.272C618.715 228.272 617.883 228.507 617.137 228.976C616.411 229.424 615.846 230.053 615.441 230.864C615.035 231.653 614.833 232.549 614.833 233.552C614.833 234.555 615.035 235.451 615.441 236.24C615.846 237.029 616.411 237.659 617.137 238.128C617.883 238.597 618.715 238.832 619.633 238.832Z" fill="#242424"/>
<path d="M601.903 242.32C600.324 242.32 598.905 241.936 597.647 241.168C596.388 240.4 595.396 239.355 594.671 238.032C593.945 236.709 593.583 235.216 593.583 233.552C593.583 231.888 593.945 230.395 594.671 229.072C595.396 227.749 596.388 226.704 597.647 225.936C598.905 225.168 600.324 224.784 601.903 224.784C603.417 224.784 604.793 225.072 606.031 225.648C607.268 226.224 608.228 227.024 608.911 228.048L606.735 230.672C606.415 230.224 606.009 229.819 605.519 229.456C605.028 229.093 604.505 228.805 603.951 228.592C603.396 228.379 602.841 228.272 602.287 228.272C601.348 228.272 600.505 228.507 599.759 228.976C599.033 229.424 598.457 230.053 598.031 230.864C597.604 231.653 597.391 232.549 597.391 233.552C597.391 234.555 597.604 235.451 598.031 236.24C598.479 237.029 599.076 237.659 599.823 238.128C600.569 238.597 601.401 238.832 602.319 238.832C602.873 238.832 603.407 238.747 603.919 238.576C604.452 238.384 604.953 238.117 605.423 237.776C605.892 237.435 606.329 237.008 606.735 236.496L608.911 239.152C608.185 240.091 607.183 240.859 605.903 241.456C604.644 242.032 603.311 242.32 601.903 242.32Z" fill="#242424"/>
<path d="M571.101 242.32C569.714 242.32 568.456 241.936 567.325 241.168C566.194 240.4 565.288 239.355 564.605 238.032C563.922 236.709 563.581 235.205 563.581 233.52C563.581 231.835 563.922 230.331 564.605 229.008C565.288 227.685 566.216 226.651 567.389 225.904C568.562 225.157 569.885 224.784 571.357 224.784C572.21 224.784 572.989 224.912 573.693 225.168C574.397 225.403 575.016 225.744 575.549 226.192C576.082 226.64 576.52 227.152 576.861 227.728C577.224 228.304 577.469 228.923 577.597 229.584L576.733 229.36V225.136H580.701V242H576.701V237.968L577.629 237.808C577.48 238.384 577.202 238.949 576.797 239.504C576.413 240.037 575.922 240.517 575.325 240.944C574.749 241.349 574.098 241.68 573.373 241.936C572.669 242.192 571.912 242.32 571.101 242.32ZM572.189 238.832C573.106 238.832 573.917 238.608 574.621 238.16C575.325 237.712 575.869 237.093 576.253 236.304C576.658 235.493 576.861 234.565 576.861 233.52C576.861 232.496 576.658 231.589 576.253 230.8C575.869 230.011 575.325 229.392 574.621 228.944C573.917 228.496 573.106 228.272 572.189 228.272C571.272 228.272 570.461 228.496 569.757 228.944C569.074 229.392 568.541 230.011 568.157 230.8C567.773 231.589 567.581 232.496 567.581 233.52C567.581 234.565 567.773 235.493 568.157 236.304C568.541 237.093 569.074 237.712 569.757 238.16C570.461 238.608 571.272 238.832 572.189 238.832Z" fill="#242424"/>
<path d="M555.806 242V225.136H559.742V242H555.806ZM557.726 221.552C556.937 221.552 556.318 221.36 555.87 220.976C555.443 220.571 555.23 220.005 555.23 219.28C555.23 218.597 555.454 218.043 555.902 217.616C556.35 217.189 556.958 216.976 557.726 216.976C558.537 216.976 559.155 217.179 559.582 217.584C560.03 217.968 560.254 218.533 560.254 219.28C560.254 219.941 560.03 220.485 559.582 220.912C559.134 221.339 558.515 221.552 557.726 221.552Z" fill="#242424"/>
<path d="M541.942 249.36C540.683 249.36 539.425 249.168 538.166 248.784C536.929 248.4 535.926 247.899 535.158 247.28L536.566 244.368C537.014 244.688 537.515 244.965 538.07 245.2C538.625 245.435 539.211 245.616 539.83 245.744C540.47 245.872 541.099 245.936 541.718 245.936C542.849 245.936 543.787 245.755 544.534 245.392C545.302 245.051 545.878 244.517 546.262 243.792C546.646 243.088 546.838 242.203 546.838 241.136V238.032L547.414 238.256C547.286 238.917 546.934 239.547 546.358 240.144C545.782 240.741 545.057 241.232 544.182 241.616C543.307 241.979 542.411 242.16 541.494 242.16C539.894 242.16 538.475 241.787 537.238 241.04C536.022 240.293 535.051 239.28 534.326 238C533.622 236.699 533.27 235.205 533.27 233.52C533.27 231.835 533.622 230.341 534.326 229.04C535.03 227.717 535.99 226.683 537.206 225.936C538.443 225.168 539.83 224.784 541.366 224.784C542.006 224.784 542.625 224.859 543.222 225.008C543.819 225.157 544.363 225.371 544.854 225.648C545.366 225.925 545.825 226.235 546.23 226.576C546.635 226.917 546.966 227.28 547.222 227.664C547.478 228.048 547.638 228.421 547.702 228.784L546.87 229.04L546.934 225.136H550.806V240.848C550.806 242.213 550.603 243.419 550.198 244.464C549.793 245.509 549.206 246.395 548.438 247.12C547.67 247.867 546.742 248.421 545.654 248.784C544.566 249.168 543.329 249.36 541.942 249.36ZM542.102 238.8C543.062 238.8 543.905 238.576 544.63 238.128C545.377 237.68 545.953 237.061 546.358 236.272C546.763 235.483 546.966 234.576 546.966 233.552C546.966 232.507 546.753 231.589 546.326 230.8C545.921 229.989 545.355 229.36 544.63 228.912C543.905 228.464 543.062 228.24 542.102 228.24C541.142 228.24 540.299 228.475 539.574 228.944C538.849 229.392 538.273 230.021 537.846 230.832C537.441 231.621 537.238 232.528 537.238 233.552C537.238 234.555 537.441 235.461 537.846 236.272C538.273 237.061 538.849 237.68 539.574 238.128C540.299 238.576 541.142 238.8 542.102 238.8Z" fill="#242424"/>
<path d="M521.358 242V225.136H525.23L525.294 230.512L524.75 229.296C524.985 228.443 525.39 227.675 525.966 226.992C526.542 226.309 527.203 225.776 527.95 225.392C528.718 224.987 529.518 224.784 530.35 224.784C530.713 224.784 531.054 224.816 531.374 224.88C531.715 224.944 531.993 225.019 532.206 225.104L531.15 229.424C530.915 229.296 530.627 229.189 530.286 229.104C529.945 229.019 529.603 228.976 529.262 228.976C528.729 228.976 528.217 229.083 527.726 229.296C527.257 229.488 526.841 229.765 526.478 230.128C526.115 230.491 525.827 230.917 525.614 231.408C525.422 231.877 525.326 232.411 525.326 233.008V242H521.358Z" fill="#242424"/>
<path d="M510.512 242.32C508.741 242.32 507.173 241.947 505.808 241.2C504.464 240.453 503.408 239.44 502.64 238.16C501.893 236.859 501.52 235.376 501.52 233.712C501.52 232.389 501.733 231.184 502.16 230.096C502.587 229.008 503.173 228.069 503.92 227.28C504.688 226.469 505.595 225.851 506.64 225.424C507.707 224.976 508.869 224.752 510.128 224.752C511.237 224.752 512.272 224.965 513.232 225.392C514.192 225.819 515.024 226.405 515.728 227.152C516.432 227.877 516.965 228.752 517.328 229.776C517.712 230.779 517.893 231.877 517.872 233.072L517.84 234.448H504.176L503.44 231.76H514.544L514.032 232.304V231.6C513.968 230.939 513.755 230.363 513.392 229.872C513.029 229.36 512.56 228.965 511.984 228.688C511.429 228.389 510.811 228.24 510.128 228.24C509.083 228.24 508.197 228.443 507.472 228.848C506.768 229.253 506.235 229.84 505.872 230.608C505.509 231.355 505.328 232.293 505.328 233.424C505.328 234.512 505.552 235.461 506 236.272C506.469 237.083 507.12 237.712 507.952 238.16C508.805 238.587 509.797 238.8 510.928 238.8C511.717 238.8 512.443 238.672 513.104 238.416C513.765 238.16 514.48 237.701 515.248 237.04L517.2 239.76C516.624 240.293 515.963 240.752 515.216 241.136C514.491 241.499 513.723 241.787 512.912 242C512.101 242.213 511.301 242.32 510.512 242.32Z" fill="#242424"/>
<path d="M483.108 242V225.136H486.948L487.012 228.592L486.276 228.976C486.489 228.208 486.905 227.515 487.524 226.896C488.143 226.256 488.879 225.744 489.732 225.36C490.585 224.976 491.46 224.784 492.356 224.784C493.636 224.784 494.703 225.04 495.556 225.552C496.431 226.064 497.081 226.832 497.508 227.856C497.956 228.88 498.18 230.16 498.18 231.696V242H494.244V231.984C494.244 231.131 494.127 230.427 493.892 229.872C493.657 229.296 493.295 228.88 492.804 228.624C492.313 228.347 491.716 228.219 491.012 228.24C490.436 228.24 489.903 228.336 489.412 228.528C488.943 228.699 488.527 228.955 488.164 229.296C487.823 229.616 487.545 229.989 487.332 230.416C487.14 230.843 487.044 231.312 487.044 231.824V242H485.092C484.708 242 484.345 242 484.004 242C483.684 242 483.385 242 483.108 242Z" fill="#242424"/>
<path d="M472.262 242.32C470.491 242.32 468.923 241.947 467.558 241.2C466.214 240.453 465.158 239.44 464.39 238.16C463.643 236.859 463.27 235.376 463.27 233.712C463.27 232.389 463.483 231.184 463.91 230.096C464.337 229.008 464.923 228.069 465.67 227.28C466.438 226.469 467.345 225.851 468.39 225.424C469.457 224.976 470.619 224.752 471.878 224.752C472.987 224.752 474.022 224.965 474.982 225.392C475.942 225.819 476.774 226.405 477.478 227.152C478.182 227.877 478.715 228.752 479.078 229.776C479.462 230.779 479.643 231.877 479.622 233.072L479.59 234.448H465.926L465.19 231.76H476.294L475.782 232.304V231.6C475.718 230.939 475.505 230.363 475.142 229.872C474.779 229.36 474.31 228.965 473.734 228.688C473.179 228.389 472.561 228.24 471.878 228.24C470.833 228.24 469.947 228.443 469.222 228.848C468.518 229.253 467.985 229.84 467.622 230.608C467.259 231.355 467.078 232.293 467.078 233.424C467.078 234.512 467.302 235.461 467.75 236.272C468.219 237.083 468.87 237.712 469.702 238.16C470.555 238.587 471.547 238.8 472.678 238.8C473.467 238.8 474.193 238.672 474.854 238.416C475.515 238.16 476.23 237.701 476.998 237.04L478.95 239.76C478.374 240.293 477.713 240.752 476.966 241.136C476.241 241.499 475.473 241.787 474.662 242C473.851 242.213 473.051 242.32 472.262 242.32Z" fill="#242424"/>
<path d="M444.106 242.32C442.335 242.32 440.767 241.947 439.402 241.2C438.058 240.453 437.002 239.44 436.234 238.16C435.487 236.859 435.114 235.376 435.114 233.712C435.114 232.389 435.327 231.184 435.754 230.096C436.18 229.008 436.767 228.069 437.514 227.28C438.282 226.469 439.188 225.851 440.234 225.424C441.3 224.976 442.463 224.752 443.722 224.752C444.831 224.752 445.866 224.965 446.826 225.392C447.786 225.819 448.618 226.405 449.322 227.152C450.026 227.877 450.559 228.752 450.922 229.776C451.306 230.779 451.487 231.877 451.466 233.072L451.434 234.448H437.77L437.034 231.76H448.138L447.626 232.304V231.6C447.562 230.939 447.348 230.363 446.986 229.872C446.623 229.36 446.154 228.965 445.578 228.688C445.023 228.389 444.404 228.24 443.722 228.24C442.676 228.24 441.791 228.443 441.066 228.848C440.362 229.253 439.828 229.84 439.466 230.608C439.103 231.355 438.922 232.293 438.922 233.424C438.922 234.512 439.146 235.461 439.594 236.272C440.063 237.083 440.714 237.712 441.546 238.16C442.399 238.587 443.391 238.8 444.522 238.8C445.311 238.8 446.036 238.672 446.698 238.416C447.359 238.16 448.074 237.701 448.842 237.04L450.794 239.76C450.218 240.293 449.556 240.752 448.81 241.136C448.084 241.499 447.316 241.787 446.506 242C445.695 242.213 444.895 242.32 444.106 242.32Z" fill="#242424"/>
<path d="M422.486 242.32C420.992 242.32 419.648 241.947 418.454 241.2C417.28 240.432 416.342 239.397 415.638 238.096C414.955 236.773 414.614 235.259 414.614 233.552C414.614 231.867 414.955 230.363 415.638 229.04C416.32 227.717 417.248 226.683 418.422 225.936C419.616 225.168 420.96 224.784 422.454 224.784C423.264 224.784 424.043 224.912 424.79 225.168C425.558 225.424 426.24 225.776 426.838 226.224C427.435 226.651 427.904 227.131 428.246 227.664C428.608 228.197 428.811 228.752 428.854 229.328L427.798 229.456V218.32H431.734V242H427.926L427.83 238.032L428.598 238.096C428.576 238.629 428.384 239.141 428.022 239.632C427.68 240.123 427.232 240.571 426.678 240.976C426.123 241.381 425.472 241.712 424.726 241.968C424 242.203 423.254 242.32 422.486 242.32ZM423.254 238.992C424.171 238.992 424.982 238.757 425.686 238.288C426.39 237.819 426.934 237.179 427.318 236.368C427.723 235.557 427.926 234.619 427.926 233.552C427.926 232.507 427.723 231.579 427.318 230.768C426.934 229.936 426.39 229.296 425.686 228.848C424.982 228.379 424.171 228.144 423.254 228.144C422.336 228.144 421.526 228.379 420.822 228.848C420.118 229.296 419.563 229.936 419.158 230.768C418.774 231.579 418.582 232.507 418.582 233.552C418.582 234.619 418.774 235.557 419.158 236.368C419.563 237.179 420.118 237.819 420.822 238.288C421.526 238.757 422.336 238.992 423.254 238.992Z" fill="#242424"/>
<path d="M394.039 242.32C392.353 242.32 390.849 241.947 389.527 241.2C388.204 240.432 387.159 239.387 386.391 238.064C385.623 236.741 385.239 235.237 385.239 233.552C385.239 231.867 385.623 230.363 386.391 229.04C387.159 227.717 388.204 226.683 389.527 225.936C390.849 225.168 392.353 224.784 394.039 224.784C395.703 224.784 397.196 225.168 398.519 225.936C399.841 226.683 400.876 227.717 401.623 229.04C402.391 230.363 402.775 231.867 402.775 233.552C402.775 235.237 402.391 236.741 401.623 238.064C400.876 239.387 399.841 240.432 398.519 241.2C397.196 241.947 395.703 242.32 394.039 242.32ZM394.039 238.832C394.956 238.832 395.767 238.597 396.471 238.128C397.196 237.659 397.761 237.029 398.167 236.24C398.593 235.451 398.796 234.555 398.775 233.552C398.796 232.528 398.593 231.621 398.167 230.832C397.761 230.043 397.196 229.424 396.471 228.976C395.767 228.507 394.956 228.272 394.039 228.272C393.121 228.272 392.289 228.507 391.543 228.976C390.817 229.424 390.252 230.053 389.847 230.864C389.441 231.653 389.239 232.549 389.239 233.552C389.239 234.555 389.441 235.451 389.847 236.24C390.252 237.029 390.817 237.659 391.543 238.128C392.289 238.597 393.121 238.832 394.039 238.832Z" fill="#242424"/>
<path d="M356.325 242V225.136H360.197L360.261 228.528L359.621 228.784C359.813 228.229 360.101 227.717 360.485 227.248C360.869 226.757 361.328 226.341 361.861 226C362.395 225.637 362.96 225.36 363.557 225.168C364.155 224.955 364.763 224.848 365.381 224.848C366.299 224.848 367.109 224.997 367.813 225.296C368.539 225.573 369.136 226.021 369.605 226.64C370.096 227.259 370.459 228.048 370.693 229.008L370.085 228.88L370.341 228.368C370.576 227.856 370.907 227.397 371.333 226.992C371.76 226.565 372.24 226.192 372.773 225.872C373.307 225.531 373.861 225.275 374.437 225.104C375.035 224.933 375.621 224.848 376.197 224.848C377.477 224.848 378.544 225.104 379.397 225.616C380.251 226.128 380.891 226.907 381.317 227.952C381.744 228.997 381.957 230.288 381.957 231.824V242H377.989V232.08C377.989 231.227 377.872 230.523 377.637 229.968C377.424 229.413 377.083 229.008 376.613 228.752C376.165 228.475 375.6 228.336 374.917 228.336C374.384 228.336 373.872 228.432 373.381 228.624C372.912 228.795 372.507 229.051 372.165 229.392C371.824 229.712 371.557 230.085 371.365 230.512C371.173 230.939 371.077 231.408 371.077 231.92V242H367.109V232.048C367.109 231.237 366.992 230.565 366.757 230.032C366.523 229.477 366.181 229.061 365.733 228.784C365.285 228.485 364.741 228.336 364.101 228.336C363.568 228.336 363.067 228.432 362.597 228.624C362.128 228.795 361.723 229.04 361.381 229.36C361.04 229.68 360.773 230.053 360.581 230.48C360.389 230.907 360.293 231.376 360.293 231.888V242H356.325Z" fill="#242424"/>
<path d="M342.464 242.32C341.248 242.32 340.192 242.053 339.296 241.52C338.4 240.965 337.717 240.187 337.248 239.184C336.779 238.16 336.544 236.944 336.544 235.536V225.136H340.48V234.704C340.48 235.6 340.619 236.368 340.896 237.008C341.173 237.627 341.579 238.107 342.112 238.448C342.645 238.789 343.285 238.96 344.032 238.96C344.587 238.96 345.088 238.875 345.536 238.704C346.005 238.512 346.411 238.256 346.752 237.936C347.093 237.595 347.36 237.2 347.552 236.752C347.744 236.283 347.84 235.781 347.84 235.248V225.136H351.776V242H347.936L347.872 238.48L348.576 238.096C348.32 238.907 347.883 239.632 347.264 240.272C346.667 240.891 345.952 241.392 345.12 241.776C344.288 242.139 343.403 242.32 342.464 242.32Z" fill="#242424"/>
<path d="M326.709 242.32C325.216 242.32 323.872 242.075 322.677 241.584C321.504 241.072 320.544 240.347 319.797 239.408L322.357 237.2C322.997 237.925 323.712 238.448 324.501 238.768C325.29 239.088 326.122 239.248 326.997 239.248C327.36 239.248 327.68 239.205 327.957 239.12C328.256 239.035 328.512 238.907 328.725 238.736C328.938 238.565 329.098 238.373 329.205 238.16C329.333 237.925 329.397 237.669 329.397 237.392C329.397 236.88 329.205 236.475 328.821 236.176C328.608 236.027 328.266 235.867 327.797 235.696C327.349 235.525 326.762 235.355 326.037 235.184C324.885 234.885 323.925 234.544 323.157 234.16C322.389 233.755 321.792 233.307 321.365 232.816C321.002 232.411 320.725 231.952 320.533 231.44C320.362 230.928 320.277 230.373 320.277 229.776C320.277 229.029 320.437 228.357 320.757 227.76C321.098 227.141 321.557 226.608 322.133 226.16C322.709 225.712 323.381 225.371 324.149 225.136C324.917 224.901 325.717 224.784 326.549 224.784C327.402 224.784 328.224 224.891 329.013 225.104C329.824 225.317 330.57 225.627 331.253 226.032C331.957 226.416 332.554 226.885 333.045 227.44L330.869 229.84C330.464 229.456 330.016 229.115 329.525 228.816C329.056 228.517 328.576 228.283 328.085 228.112C327.594 227.92 327.136 227.824 326.709 227.824C326.304 227.824 325.941 227.867 325.621 227.952C325.301 228.016 325.034 228.123 324.821 228.272C324.608 228.421 324.437 228.613 324.309 228.848C324.202 229.061 324.149 229.317 324.149 229.616C324.17 229.872 324.234 230.117 324.341 230.352C324.469 230.565 324.64 230.747 324.853 230.896C325.088 231.045 325.44 231.216 325.909 231.408C326.378 231.6 326.986 231.781 327.733 231.952C328.778 232.229 329.653 232.539 330.357 232.88C331.061 233.221 331.616 233.616 332.021 234.064C332.426 234.448 332.714 234.896 332.885 235.408C333.056 235.92 333.141 236.485 333.141 237.104C333.141 238.107 332.853 239.003 332.277 239.792C331.722 240.581 330.954 241.2 329.973 241.648C329.013 242.096 327.925 242.32 326.709 242.32Z" fill="#242424"/>
<path d="M301.577 242V225.136H305.417L305.481 228.592L304.745 228.976C304.958 228.208 305.374 227.515 305.993 226.896C306.611 226.256 307.347 225.744 308.201 225.36C309.054 224.976 309.929 224.784 310.825 224.784C312.105 224.784 313.171 225.04 314.025 225.552C314.899 226.064 315.55 226.832 315.977 227.856C316.425 228.88 316.649 230.16 316.649 231.696V242H312.713V231.984C312.713 231.131 312.595 230.427 312.361 229.872C312.126 229.296 311.763 228.88 311.273 228.624C310.782 228.347 310.185 228.219 309.481 228.24C308.905 228.24 308.371 228.336 307.881 228.528C307.411 228.699 306.995 228.955 306.633 229.296C306.291 229.616 306.014 229.989 305.801 230.416C305.609 230.843 305.513 231.312 305.513 231.824V242H303.561C303.177 242 302.814 242 302.473 242C302.153 242 301.854 242 301.577 242Z" fill="#242424"/>
<path d="M289.32 242.32C287.635 242.32 286.131 241.947 284.808 241.2C283.485 240.432 282.44 239.387 281.672 238.064C280.904 236.741 280.52 235.237 280.52 233.552C280.52 231.867 280.904 230.363 281.672 229.04C282.44 227.717 283.485 226.683 284.808 225.936C286.131 225.168 287.635 224.784 289.32 224.784C290.984 224.784 292.477 225.168 293.8 225.936C295.123 226.683 296.157 227.717 296.904 229.04C297.672 230.363 298.056 231.867 298.056 233.552C298.056 235.237 297.672 236.741 296.904 238.064C296.157 239.387 295.123 240.432 293.8 241.2C292.477 241.947 290.984 242.32 289.32 242.32ZM289.32 238.832C290.237 238.832 291.048 238.597 291.752 238.128C292.477 237.659 293.043 237.029 293.448 236.24C293.875 235.451 294.077 234.555 294.056 233.552C294.077 232.528 293.875 231.621 293.448 230.832C293.043 230.043 292.477 229.424 291.752 228.976C291.048 228.507 290.237 228.272 289.32 228.272C288.403 228.272 287.571 228.507 286.824 228.976C286.099 229.424 285.533 230.053 285.128 230.864C284.723 231.653 284.52 232.549 284.52 233.552C284.52 234.555 284.723 235.451 285.128 236.24C285.533 237.029 286.099 237.659 286.824 238.128C287.571 238.597 288.403 238.832 289.32 238.832Z" fill="#242424"/>
<path d="M271.59 242.32C270.011 242.32 268.593 241.936 267.334 241.168C266.075 240.4 265.083 239.355 264.358 238.032C263.633 236.709 263.27 235.216 263.27 233.552C263.27 231.888 263.633 230.395 264.358 229.072C265.083 227.749 266.075 226.704 267.334 225.936C268.593 225.168 270.011 224.784 271.59 224.784C273.105 224.784 274.481 225.072 275.718 225.648C276.955 226.224 277.915 227.024 278.598 228.048L276.422 230.672C276.102 230.224 275.697 229.819 275.206 229.456C274.715 229.093 274.193 228.805 273.638 228.592C273.083 228.379 272.529 228.272 271.974 228.272C271.035 228.272 270.193 228.507 269.446 228.976C268.721 229.424 268.145 230.053 267.718 230.864C267.291 231.653 267.078 232.549 267.078 233.552C267.078 234.555 267.291 235.451 267.718 236.24C268.166 237.029 268.763 237.659 269.51 238.128C270.257 238.597 271.089 238.832 272.006 238.832C272.561 238.832 273.094 238.747 273.606 238.576C274.139 238.384 274.641 238.117 275.11 237.776C275.579 237.435 276.017 237.008 276.422 236.496L278.598 239.152C277.873 240.091 276.87 240.859 275.59 241.456C274.331 242.032 272.998 242.32 271.59 242.32Z" fill="#242424"/>
<!-- FIM -->
</svg>
