<svg xmlns="http://www.w3.org/2000/svg" xmlns:xlink="http://www.w3.org/1999/xlink" width="151" height="39"><defs><path id="a" d="M0 0h77.26v38.16H0z"/></defs><g fill="none" fill-rule="evenodd"><g transform="translate(.1 .83)"><mask id="b" fill="#fff"><use xlink:href="#a"/></mask><path fill="#FFFFFE" d="M0 38.16h77.26V0H0z" mask="url(#b)"/><path fill="#003967" d="M65.34 13.88a68.08 68.08 0 0 1-12.78 7.14 27.04 27.04 0 0 1-7.3 1.96c-1.84.23-3.7.34-5.6.34v14.84h37.6V5.38l-11.92 8.5m-53.5 0a68.12 68.12 0 0 0 12.77 7.14c2.27.97 4.72 1.64 7.3 1.96 1.84.23 3.7.34 5.6.34v14.84H-.09V5.38l11.93 8.5" mask="url(#b)"/><path fill="#003967" d="M39.66 0v21.2c1.8 0 3.58-.1 5.33-.32 2.38-.3 4.63-.9 6.72-1.8a66.04 66.04 0 0 0 12.37-6.92l13.18-9.4V0h-37.6m-2.15 0v21.2c-1.8 0-3.58-.1-5.33-.32-2.37-.3-4.63-.9-6.72-1.8a65.99 65.99 0 0 1-12.36-6.92L-.1 2.76V0h37.61" mask="url(#b)"/><path fill="#008143" d="M65.34 13.88a68.08 68.08 0 0 1-12.78 7.14 27.04 27.04 0 0 1-7.3 1.96c-1.84.23-3.7.34-5.6.34v14.84h37.6V5.38l-11.92 8.5m-53.5 0a68.12 68.12 0 0 0 12.77 7.14c2.27.97 4.72 1.64 7.3 1.96 1.84.23 3.7.34 5.6.34v14.84H-.09V5.38l11.93 8.5" mask="url(#b)"/><path fill="#003967" d="M39.66 0v21.2c1.8 0 3.58-.1 5.33-.32 2.38-.3 4.63-.9 6.72-1.8a66.04 66.04 0 0 0 12.37-6.92l13.18-9.4V0h-37.6m-2.15 0v21.2c-1.8 0-3.58-.1-5.33-.32-2.37-.3-4.63-.9-6.72-1.8a65.99 65.99 0 0 1-12.36-6.92L-.1 2.76V0h37.61" mask="url(#b)"/></g><path fill="#003967" d="M92.4 22.5V9.32h4.91v12.83c0 3.34 1.57 4.89 4.34 4.89 2.83 0 4.24-1.61 4.24-5.04V9.31h4.95V22.3c0 5.86-3.54 8.53-9.29 8.53-5.5 0-9.15-2.46-9.15-8.31m33.02 7.99V21c0-2.28-.65-3.43-2.56-3.43-1.96 0-3.07 1.67-3.07 4.34v8.61h-4.83v-12.5c0-1.66-.06-2.85-.09-3.75h4.61c.07.57.22 2.42.25 3.33.83-2.58 2.89-3.64 5.25-3.64 4.15 0 5.32 2.76 5.32 5.8V30.5h-4.88m16.57-9.18h-2.74V27h2.9c2.27 0 3.8-.73 3.8-2.92 0-2.15-1.78-2.76-3.96-2.76Zm-.58-8.55h-2.16v4.94h2.19c2.33 0 3.34-.75 3.34-2.48 0-1.8-1.07-2.46-3.37-2.46Zm1.2 17.74h-8.18V9.31h7.43c4.99 0 7.84 1.8 7.84 5.37 0 2.4-1.29 3.97-3.87 4.58 3.29.43 5.1 2.37 5.1 5.19 0 4.27-3.5 6.06-8.33 6.06Z"/></g></svg>