<svg xmlns="http://www.w3.org/2000/svg" width="162" height="72"><g fill="none" fill-rule="evenodd"><path fill="#000" d="M147.024 68.232a2.392 2.392 0 0 1-.36.688 1.718 1.718 0 0 1-1.384.68 1.69 1.69 0 0 1-.998-.31 1.966 1.966 0 0 1-.664-.794 2.461 2.461 0 0 1-.225-1.046 2.406 2.406 0 0 1 .495-1.469 1.752 1.752 0 0 1 1.392-.673 1.728 1.728 0 0 1 1.362.65 2.42 2.42 0 0 1 .51 1.49c0 .27-.043.53-.128.784Zm.875-1.867a3.32 3.32 0 0 0-.566-.961 2.697 2.697 0 0 0-.896-.684 2.6 2.6 0 0 0-1.148-.26c-.398 0-.775.083-1.129.248a2.815 2.815 0 0 0-.905.657 3.108 3.108 0 0 0-.591.955c-.145.364-.217.74-.217 1.13a3.123 3.123 0 0 0 .51 1.707c.166.252.362.473.588.665a2.689 2.689 0 0 0 1.727.617c.398 0 .774-.082 1.129-.246a2.74 2.74 0 0 0 .901-.655 3.164 3.164 0 0 0 .804-2.08c0-.37-.07-.735-.207-1.093Zm-10.926-2.648a.759.759 0 0 1 .049-.13.313.313 0 0 1 .126-.134.412.412 0 0 1 .219-.055c.097 0 .201.03.31.09.11.059.23.118.36.178.13.06.266.09.41.09a.83.83 0 0 0 .38-.088.847.847 0 0 0 .273-.209c.068-.081.125-.169.173-.264.047-.094.08-.175.097-.243a.669.669 0 0 0 .027-.154h-.524a.36.36 0 0 1-.04.156.4.4 0 0 1-.209.209.47.47 0 0 1-.202.04.71.71 0 0 1-.337-.09 10.99 10.99 0 0 0-.357-.183.884.884 0 0 0-.393-.091.78.78 0 0 0-.611.286c-.064.08-.118.166-.163.26a1.194 1.194 0 0 0-.091.244.78.78 0 0 0-.024.167h.515c0-.02.004-.046.012-.08Zm-.036 4.39.978-2.584.95 2.584h-1.928Zm.54-3.606-2.314 5.897h.99l.617-1.602h2.278l.62 1.602h.983l-2.294-5.897h-.88Zm-5.337 4.69c-.18.15-.367.257-.56.32a1.89 1.89 0 0 1-.595.096c-.357 0-.684-.1-.979-.302a2.018 2.018 0 0 1-.684-.797 2.4 2.4 0 0 1-.241-1.066c0-.209.025-.414.075-.617a2.24 2.24 0 0 1 .233-.58 2.09 2.09 0 0 1 .378-.482c.146-.138.322-.248.528-.331.205-.082.427-.124.665-.124a1.953 1.953 0 0 1 .861.201c.14.069.27.166.39.292.119.126.218.274.296.444l.73-.49a2.265 2.265 0 0 0-.882-.935c-.391-.234-.845-.351-1.362-.351-.35 0-.678.056-.987.168a2.567 2.567 0 0 0-.8.456 3.102 3.102 0 0 0-.582.663c-.164.25-.286.517-.367.8a3.037 3.037 0 0 0 .071 1.912c.128.348.305.663.53.945.224.28.5.515.83.701.329.187.681.295 1.057.325.298.194.447.4.447.616a.34.34 0 0 1-.132.29.6.6 0 0 1-.368.1c-.18 0-.377-.059-.588-.175l-.232.49c.311.16.638.24.979.24.287 0 .51-.07.67-.21a.72.72 0 0 0 .24-.569c0-.294-.143-.56-.427-.799a3.02 3.02 0 0 0 1.214-.448c.37-.236.632-.536.783-.898l-.775-.438a1.514 1.514 0 0 1-.416.554Zm-7.474-1.7c0 .221-.016.43-.047.626a2.408 2.408 0 0 1-.165.57 1.707 1.707 0 0 1-.296.474 1.28 1.28 0 0 1-.46.318c-.189.08-.403.12-.644.12a1.65 1.65 0 0 1-.638-.117 1.288 1.288 0 0 1-.458-.313 1.67 1.67 0 0 1-.299-.47 2.405 2.405 0 0 1-.168-.574 3.933 3.933 0 0 1-.049-.635v-2.989h-.934v2.99c0 .316.028.614.084.893.055.28.146.548.274.804.127.255.286.473.479.654.192.182.433.326.724.434.291.109.62.163.985.163.44 0 .829-.078 1.163-.231a2 2 0 0 0 .8-.643c.198-.275.347-.586.444-.933a4.24 4.24 0 0 0 .146-1.142v-2.989h-.941v2.99Zm-8.658.032h-1.632v-2.198h1.58c.248 0 .468.107.657.322.19.215.284.472.284.773 0 .305-.084.565-.251.78a.776.776 0 0 1-.638.323Zm1.518-.019a1.941 1.941 0 0 0 .18-1.782 2.167 2.167 0 0 0-.374-.616 1.773 1.773 0 0 0-1.316-.605h-2.57v5.897h.93v-2.052h1.372l1.283 2.052h1.047l-1.388-2.243a1.54 1.54 0 0 0 .836-.65Zm-11.402-2.18h1.97v5.074h.941v-5.073h1.96V64.5h-4.87v.824Zm-2.39 2.456a1.536 1.536 0 0 0-.409-.312 3.214 3.214 0 0 0-.532-.231 8.358 8.358 0 0 0-.666-.185c-.162-.04-.294-.073-.393-.1a5.759 5.759 0 0 1-.323-.092 2.069 2.069 0 0 1-.272-.104 1.656 1.656 0 0 1-.201-.117.554.554 0 0 1-.236-.317.687.687 0 0 1-.032-.219c0-.26.095-.46.286-.602.19-.142.478-.213.863-.213.324 0 .64.065.946.195.305.13.522.265.65.405l.421-.762a3.292 3.292 0 0 0-1.993-.665c-.306 0-.589.039-.848.117-.26.079-.486.192-.678.341a1.554 1.554 0 0 0-.453.566c-.11.228-.164.484-.164.768 0 .227.035.424.105.59.07.167.184.31.34.432.155.122.334.225.537.309.203.083.46.166.771.247.2.051.36.093.477.126.118.032.248.073.39.121.142.049.252.096.329.142.077.046.152.1.225.164a.535.535 0 0 1 .155.213c.03.079.044.167.044.264 0 .243-.1.43-.298.56-.2.13-.483.194-.85.194-.41 0-.806-.081-1.192-.245-.386-.164-.664-.333-.834-.51l-.427.8c.336.257.713.453 1.133.59a4.188 4.188 0 0 0 1.985.146c.211-.04.409-.103.593-.19a1.69 1.69 0 0 0 .47-.327c.13-.13.233-.29.307-.479a1.73 1.73 0 0 0 .112-.636c0-.211-.03-.399-.091-.564a1.297 1.297 0 0 0-.246-.42Zm-7.74.984L92.65 64.5h-.764v5.897h.93V66.23l3.3 4.17h.817v-5.89h-.938v4.255Zm-7.818-.532a2.388 2.388 0 0 1-.36.688 1.715 1.715 0 0 1-.592.493 1.7 1.7 0 0 1-.792.186c-.374 0-.707-.103-.999-.308a1.965 1.965 0 0 1-.663-.795 2.462 2.462 0 0 1-.226-1.046 2.41 2.41 0 0 1 .495-1.469 1.745 1.745 0 0 1 1.393-.673 1.734 1.734 0 0 1 1.362.65c.158.2.283.429.373.687a2.444 2.444 0 0 1 .008 1.588Zm.308-2.828a2.7 2.7 0 0 0-.895-.684 2.602 2.602 0 0 0-1.15-.26c-.397 0-.773.083-1.128.248a2.815 2.815 0 0 0-.905.657 3.1 3.1 0 0 0-.59.955c-.145.364-.218.74-.218 1.13a3.123 3.123 0 0 0 .51 1.707c.166.252.362.473.589.665a2.694 2.694 0 0 0 1.727.617c.398 0 .774-.082 1.128-.246.355-.163.655-.382.902-.655a3.16 3.16 0 0 0 .803-2.08c0-.37-.069-.735-.207-1.093a3.316 3.316 0 0 0-.566-.961Zm-8.152 3.788c-.18.15-.367.256-.56.32a1.892 1.892 0 0 1-.595.095c-.357 0-.684-.1-.979-.302a2.018 2.018 0 0 1-.684-.797 2.402 2.402 0 0 1-.242-1.066c0-.209.026-.414.076-.617a2.229 2.229 0 0 1 .61-1.062 1.68 1.68 0 0 1 .529-.331c.205-.082.427-.124.665-.124a1.951 1.951 0 0 1 .86.201c.142.069.272.166.39.292.12.126.218.274.297.444l.73-.49a2.265 2.265 0 0 0-.882-.935c-.391-.234-.845-.351-1.362-.351-.35 0-.678.056-.987.168a2.566 2.566 0 0 0-.8.456 3.107 3.107 0 0 0-.582.663c-.164.25-.286.517-.367.8a3.039 3.039 0 0 0 .09 1.959c.14.363.331.688.573.975.242.286.542.517.898.693.355.176.734.264 1.134.264.317 0 .632-.052.946-.154.314-.103.602-.261.865-.475.262-.213.452-.46.568-.742l-.775-.438a1.51 1.51 0 0 1-.416.554Zm-9.258-1.418h2.635V67h-2.635v-1.675h3.045V64.5h-3.975v5.897h4.048v-.823h-3.118v-1.8Zm-5.524-.251h-1.632v-2.198h1.58c.249 0 .468.107.657.322.19.215.284.472.284.773 0 .305-.084.565-.251.78a.775.775 0 0 1-.638.323Zm1.519-.019a1.938 1.938 0 0 0 .178-1.782 2.156 2.156 0 0 0-.373-.616 1.771 1.771 0 0 0-1.315-.605h-2.57v5.897h.93v-2.052h1.372l1.282 2.052h1.048l-1.389-2.243a1.54 1.54 0 0 0 .837-.65Zm-13.528.27h2.635V67h-2.635v-1.675h3.045V64.5h-3.974v5.897h4.047v-.823h-3.118v-1.8Zm-8.345.458a2.388 2.388 0 0 1-.36.688 1.716 1.716 0 0 1-.592.493 1.7 1.7 0 0 1-.791.186c-.374 0-.707-.103-1-.308a1.965 1.965 0 0 1-.663-.795 2.46 2.46 0 0 1-.225-1.046 2.415 2.415 0 0 1 .495-1.469 1.745 1.745 0 0 1 1.393-.673 1.734 1.734 0 0 1 1.362.65 2.415 2.415 0 0 1 .51 1.49c0 .27-.044.53-.129.784Zm.309-2.828a2.698 2.698 0 0 0-.895-.684 2.602 2.602 0 0 0-1.15-.26c-.397 0-.773.083-1.128.248a2.817 2.817 0 0 0-.905.657 3.107 3.107 0 0 0-.59.955c-.146.364-.218.74-.218 1.13a3.129 3.129 0 0 0 .51 1.707c.166.252.362.473.588.665a2.698 2.698 0 0 0 1.727.617 2.66 2.66 0 0 0 1.129-.246 2.73 2.73 0 0 0 .901-.655 3.16 3.16 0 0 0 .804-2.08c0-.37-.069-.735-.207-1.093a3.317 3.317 0 0 0-.566-.961Zm-10.36-1.687a.759.759 0 0 1 .049-.13.314.314 0 0 1 .125-.134.412.412 0 0 1 .22-.055c.097 0 .2.03.31.09.11.059.23.118.36.178.13.06.266.09.41.09a.83.83 0 0 0 .38-.088.845.845 0 0 0 .273-.209c.068-.081.125-.169.173-.264.047-.094.08-.175.097-.243a.66.66 0 0 0 .027-.154h-.524a.356.356 0 0 1-.04.156.399.399 0 0 1-.209.209.47.47 0 0 1-.202.04.71.71 0 0 1-.337-.09 10.99 10.99 0 0 0-.357-.183.884.884 0 0 0-.394-.091.78.78 0 0 0-.611.286c-.063.08-.117.166-.162.26a1.192 1.192 0 0 0-.091.244.772.772 0 0 0-.025.167h.516c0-.02.004-.046.012-.08Zm-.036 4.39.978-2.584.95 2.584h-1.928Zm.54-3.606-2.314 5.897h.99l.617-1.602h2.277l.622 1.602h.982l-2.294-5.897h-.88Zm-5.63 5.897h.93v-5.897h-.93v5.897Zm-3.928-1.634L22.746 64.5h-.763v5.897h.93V66.23l3.3 4.17h.816v-5.89h-.938v4.255Zm-7.95-1.274c0 .222-.016.43-.048.627a2.408 2.408 0 0 1-.164.57 1.707 1.707 0 0 1-.296.474c-.12.133-.273.239-.461.318-.188.08-.403.12-.644.12a1.64 1.64 0 0 1-.637-.117 1.29 1.29 0 0 1-.459-.313 1.67 1.67 0 0 1-.298-.47 2.413 2.413 0 0 1-.169-.574 3.933 3.933 0 0 1-.048-.635v-2.989h-.934v2.99c0 .316.028.614.083.893.056.28.147.548.274.804.127.255.287.473.48.654.191.182.433.326.724.434.29.109.619.163.984.163.441 0 .83-.078 1.163-.231a2 2 0 0 0 .8-.643c.2-.275.347-.586.445-.933a4.24 4.24 0 0 0 .146-1.142v-2.989h-.942v2.99ZM145.099 5.753V.177h-2.134v7.509h5.295V5.753h-3.16Zm-9.65-1.148.752-1.844.752 1.844h-1.504Zm-.221-4.428-3.14 7.509h2.112l.52-1.292h2.973l.53 1.292h2.101l-3.172-7.51h-1.924Zm-8.533 3.202h-1.415V1.977h1.415c.487 0 .774.33.774.707 0 .364-.298.695-.774.695Zm2.82-.762c0-1.391-1.129-2.44-2.599-2.44h-3.636v7.509h2V5.09h.852l1.492 2.595h2.244l-1.67-2.893a2.422 2.422 0 0 0 1.316-2.176Zm-14.746 5.069h5.383V5.853h-3.35V4.737h2.212V3.125h-2.211V2.01h3.35V.177h-5.384v7.509Zm-7.03-1.955h-.917v-3.6h.917c1.194 0 2.012.707 2.012 1.8s-.818 1.8-2.012 1.8Zm.1-5.554h-3.063v7.509h3.062c2.289 0 4.013-1.602 4.013-3.755 0-2.153-1.724-3.754-4.013-3.754ZM96.265 7.686h5.383V5.853H98.3V4.737h2.211V3.125H98.3V2.01h3.35V.177h-5.384v7.509Zm-8.423 0h2.034V4.947h2.211v-1.7h-2.21v-1.27h3.349v-1.8h-5.384v7.509Zm-11.816-1.9c-1.006 0-1.78-.795-1.78-1.855s.774-1.855 1.78-1.855c.984 0 1.747.795 1.747 1.855s-.763 1.855-1.747 1.855Zm0-5.786a3.916 3.916 0 0 0-3.946 3.931 3.917 3.917 0 0 0 3.946 3.932 3.912 3.912 0 0 0 3.925-3.932A3.911 3.911 0 0 0 76.027 0Zm-8.864 4.14L64.123.178h-1.702v7.51h2V3.732l3.03 3.953h1.713V.176h-2.001v3.965Zm-10.7-.76h-1.415V1.976h1.415c.487 0 .774.33.774.707 0 .364-.298.695-.774.695Zm2.82-.763c0-1.391-1.128-2.44-2.599-2.44h-3.636v7.509h2V5.09h.852l1.492 2.595h2.244l-1.67-2.893a2.421 2.421 0 0 0 1.316-2.176ZM44.536 7.686h5.383V5.853h-3.35V4.737h2.212V3.125H46.57V2.01h3.35V.177h-5.384v7.509ZM37.95 4.804 36.203.177h-2.178l2.907 7.51h2.023l2.94-7.51h-2.177L37.95 4.804Zm-9.76.982c-1.006 0-1.78-.795-1.78-1.855s.774-1.855 1.78-1.855c.983 0 1.746.795 1.746 1.855s-.763 1.855-1.747 1.855Zm0-5.786a3.916 3.916 0 0 0-3.947 3.931 3.916 3.916 0 0 0 3.946 3.932 3.912 3.912 0 0 0 3.925-3.932A3.911 3.911 0 0 0 28.189 0ZM17.27 5.013h2.022c-.177.486-.685.884-1.481.884-1.139 0-1.924-.817-1.924-1.944 0-1.148.785-1.998 1.89-1.998.708 0 1.316.342 1.648.938l1.724-1.027C20.453.706 19.182 0 17.8 0a3.916 3.916 0 0 0-3.935 3.942c0 2.198 1.736 3.92 3.947 3.92 2.078 0 3.648-1.524 3.648-3.865v-.585h-4.19v1.601Z"/><path fill="#FFCF00" d="M134.572 42.088h13.688V15.824h-13.688z"/><path fill="#183EFF" d="M148.26 55.372h13.688V42.088H148.26z"/><path fill="#363636" d="M134.571 55.372h13.689V42.088h-13.689z"/><path fill="#00CF00" d="M118.574 55.372h13.688V15.824h-13.688z"/><path fill="red" d="M88.515 55.372h12.94V33.4h-12.94z"/><path fill="#183EFF" d="M101.455 30.205h14.81V15.824h-14.81z"/><path fill="#FFCF00" d="M105.978 30.205h-4.523v25.167h4.523c6.956 0 12.596-5.634 12.596-12.584 0-6.95-5.64-12.583-12.596-12.583"/><path fill="#00CF00" d="M97.312 15.824c-4.858 0-8.797 3.934-8.797 8.788s3.939 8.788 8.797 8.788h4.143V15.824h-4.143Z"/><path fill="#183EFF" d="M13.688 31.692h3.17c4.386 0 7.942-3.553 7.942-7.934 0-4.382-3.556-7.935-7.942-7.935h-3.17v15.869Z"/><path fill="#00CF00" d="M0 31.692h13.688V15.824H0z"/><path fill="#FFCF00" d="M0 55.372h13.688v-23.68H0z"/><path fill="red" d="M18.189 31.692h-4.5v23.68h4.5c6.545 0 11.852-5.301 11.852-11.84 0-6.54-5.307-11.84-11.852-11.84"/><path fill="#00CF00" d="M45.575 39.709H30.041v15.663h25.731z"/><path fill="#FFCF00" d="M45.575 39.709 30.041 15.824v23.885z"/><path fill="#183EFF" d="M45.575 15.824H30.041l15.534 23.885c6.603 0 11.955-5.347 11.955-11.942 0-6.596-5.352-11.943-11.955-11.943"/><path fill="#FFCF00" d="M71.822 15.824 48.277 55.372h47.09z"/><path fill="#363636" d="M88.515 43.863v11.509h6.852zM48.277 55.372h7.495l-3.914-6.016z"/><path fill="#183EFF" d="M86.264 55.372c0-7.969-6.466-14.428-14.442-14.428S57.38 47.404 57.38 55.372h28.884Z"/></g></svg>