<svg xmlns="http://www.w3.org/2000/svg" width="144" height="144"><defs><linearGradient id="a" x1="32.5%" x2="75.95%" y1="27.18%" y2="53.92%"><stop offset="0%" stop-color="#14B6CC"/><stop offset="100%" stop-color="#0C7280"/></linearGradient><linearGradient id="b" x1="39.86%" x2="69.61%" y1="45.08%" y2="68.67%"><stop offset="0%" stop-color="#14B6CC"/><stop offset="100%" stop-color="#0C7280"/></linearGradient></defs><g fill="none"><path fill="url(#a)" d="M19.74 97.38a3 3 0 0 1 4.08 1.17A54.98 54.98 0 0 0 72 127a54.98 54.98 0 0 0 48.18-28.45 3 3 0 1 1 5.25 2.9A60.98 60.98 0 0 1 72 133a60.98 60.98 0 0 1-53.43-31.55 3 3 0 0 1 1.17-4.07Z"/><path fill="url(#b)" d="M72 11c22.03 0 42 11.78 52.84 30.5a3 3 0 0 1-5.2 3A54.97 54.97 0 0 0 72 17a54.97 54.97 0 0 0-47.64 27.5 3 3 0 1 1-5.2-3A60.97 60.97 0 0 1 72 11Z"/><path fill="#FB736C" d="M13.8 79.66a10 10 0 0 0-2.5-1.06 4.04 4.04 0 0 0-.96-.14c-.7 0-1.05.22-1.05.65a.55.55 0 0 0 .22.48l.25.17a9.02 9.02 0 0 0 1.35.47l.6.18a8.5 8.5 0 0 1 2.42 1.05c.35.23.63.47.83.74.21.27.38.6.5.98a4.42 4.42 0 0 1-.1 2.92 3.38 3.38 0 0 1-1.89 1.96c-.43.2-.88.35-1.34.43-.46.09-.94.13-1.45.13-.94 0-1.93-.14-2.96-.42A11.03 11.03 0 0 1 5 87.1l1.55-3.15.24.15a12.5 12.5 0 0 0 2.74 1.13c.44.1.84.15 1.21.15.7 0 1.04-.19 1.04-.57a.59.59 0 0 0-.13-.38 1.2 1.2 0 0 0-.45-.3c-.21-.1-.41-.18-.6-.24l-.83-.25c-.36-.1-.65-.2-.89-.28a6.14 6.14 0 0 1-2.54-1.42 3.15 3.15 0 0 1-.77-2.24c0-.7.13-1.34.4-1.9a3.8 3.8 0 0 1 1.07-1.4c.46-.36.97-.64 1.55-.83.59-.19 1.2-.29 1.86-.29 1.4 0 3.02.47 4.9 1.41l-1.55 2.97Zm9.13 8.9a6.7 6.7 0 0 1-2.21-.34 4.95 4.95 0 0 1-2.8-2.35 6.5 6.5 0 0 1-.67-1.77 9.1 9.1 0 0 1-.2-2v-6.7h3.58v6.7c0 .45.05.87.13 1.25.1.39.22.73.4 1.04a1.95 1.95 0 0 0 1.77 1 2.05 2.05 0 0 0 1.8-1.02 4.59 4.59 0 0 0 .52-2.27v-6.7h3.59v6.7c0 .93-.12 1.78-.36 2.56a6.2 6.2 0 0 1-1.07 2.04 4.71 4.71 0 0 1-1.85 1.37c-.76.33-1.64.5-2.63.5Zm15.88-8.9a10 10 0 0 0-2.5-1.06 4.04 4.04 0 0 0-.96-.14c-.7 0-1.05.22-1.05.65 0 .1.02.18.05.26.03.08.1.15.18.22l.24.17a9.02 9.02 0 0 0 1.35.47l.6.18c.53.17.98.32 1.35.48.37.16.73.35 1.07.57.35.23.63.47.84.74.21.27.38.6.5.98s.18.8.18 1.29c0 .6-.1 1.15-.28 1.63a3.38 3.38 0 0 1-1.9 1.96c-.43.2-.88.35-1.33.43-.46.09-.95.13-1.46.13-.94 0-1.92-.14-2.95-.42a11.03 11.03 0 0 1-2.72-1.1l1.54-3.15.25.15a12.5 12.5 0 0 0 2.74 1.13c.43.1.84.15 1.2.15.7 0 1.05-.19 1.05-.57a.59.59 0 0 0-.14-.38 1.2 1.2 0 0 0-.44-.3c-.21-.1-.42-.18-.61-.24l-.83-.25c-.35-.1-.65-.2-.88-.28a6.14 6.14 0 0 1-2.54-1.42 3.15 3.15 0 0 1-.78-2.24c0-.7.13-1.34.4-1.9a3.8 3.8 0 0 1 1.08-1.4c.45-.36.97-.64 1.55-.83.58-.19 1.2-.29 1.85-.29 1.4 0 3.03.47 4.9 1.41l-1.55 2.97Zm13.6-1.14h-3.74v9.94h-3.6v-9.94H41.3v-3.13h11.12v3.13Zm10.62 6.8v3.14h-9.31V75.39h9.15v3.13H57.3v1.84h4.76v2.9H57.3v2.07h5.73Zm5.25-3.29v6.43H64.7V75.39h2.8l5.24 6.64V75.4h3.59v13.07h-2.85l-5.2-6.43Zm20.46-6.64v3.13H85v9.94h-3.6v-9.94h-3.77v-3.13h11.11Zm7.14 0 4.16 13.07H96.4l-.8-2.56h-3.48l-.77 2.56h-3.66l4.18-13.07h4Zm6.7 0 2.55 8.92 2.53-8.92h3.77l-4.5 13.07h-3.58L98.8 75.39h3.8Zm-8.7 3.51-1.22 4.6h2.37l-1.15-4.6Zm2.92-7.26-1.82 3.2-2.21-.59.93-2.61h3.1Zm24.93 13.69v3.13h-9.3V75.39h9.14v3.13H116v1.84h4.75v2.9H116v2.07h5.72Zm1.67 3.13V75.39h3.6v13.07h-3.59Zm13.75-8.8a10 10 0 0 0-2.5-1.06 4.04 4.04 0 0 0-.96-.14c-.7 0-1.05.22-1.05.65a.55.55 0 0 0 .22.48l.25.17a9.02 9.02 0 0 0 1.35.47l.6.18c.53.17.98.32 1.35.48.37.16.72.35 1.07.57.35.23.63.47.84.74a3.6 3.6 0 0 1 .68 2.27c0 .6-.1 1.15-.29 1.63a3.38 3.38 0 0 1-1.88 1.96c-.44.2-.89.35-1.35.43-.46.09-.94.13-1.45.13-.94 0-1.92-.14-2.96-.42a11.03 11.03 0 0 1-2.72-1.1l1.55-3.15.24.15a12.5 12.5 0 0 0 2.75 1.13c.43.1.83.15 1.2.15.7 0 1.05-.19 1.05-.57a.59.59 0 0 0-.14-.38 1.2 1.2 0 0 0-.45-.3c-.2-.1-.41-.18-.6-.24l-.83-.25c-.36-.1-.65-.2-.89-.28a6.14 6.14 0 0 1-2.53-1.42 3.15 3.15 0 0 1-.78-2.24c0-.7.13-1.34.4-1.9a3.8 3.8 0 0 1 1.08-1.4c.45-.36.97-.64 1.55-.83.58-.19 1.2-.29 1.85-.29 1.4 0 3.03.47 4.9 1.41l-1.55 2.97Z"/><path fill="#0A5C67" d="M10.37 68.3a6 6 0 0 1-2.05-.33 4.48 4.48 0 0 1-2.54-2.2 6.2 6.2 0 0 1-.6-1.64A8.93 8.93 0 0 1 5 62.28V56.1h2.8v6.18c0 .48.04.93.14 1.34.1.4.24.78.43 1.11.2.34.46.6.8.8.34.18.74.28 1.2.28.46 0 .86-.1 1.2-.3.35-.2.62-.46.8-.8.2-.34.34-.71.43-1.12.1-.4.14-.84.14-1.3V56.1h2.8v6.18c0 .86-.11 1.64-.33 2.36a5.81 5.81 0 0 1-.95 1.9c-.43.55-.99.98-1.68 1.3-.7.3-1.5.46-2.41.46Zm10.31-7.02v6.92h-2.8V56.1h2.23l5.6 7.12V56.1h2.8v12.1h-2.28l-5.55-6.92Zm10.14 6.92V56.1h2.8v12.1h-2.8Zm6.86-12.1 2.85 8.83 2.81-8.83h2.95l-4.4 12.1h-2.74l-4.43-12.1h2.96Zm18.24 9.64v2.46h-8.5V56.1h8.35v2.45H50.2v2.35h4.77v2.27H50.2v2.57h5.7Zm1.7 2.46V56.1h5.45c.73 0 1.4.2 2.02.6a4.19 4.19 0 0 1 1.4 5.54 3.67 3.67 0 0 1-1.45 1.46l2.67 4.5h-3.1l-2.31-3.9h-1.9v3.9h-2.79Zm2.79-6.34h2.55c.34 0 .63-.16.86-.48.24-.31.36-.71.36-1.2 0-.47-.13-.86-.4-1.16-.27-.31-.57-.47-.9-.47h-2.47v3.3Zm15.88-2.22a4 4 0 0 0-1.23-.7c-.7-.3-1.36-.45-1.99-.45-1 0-1.5.33-1.5 1 0 .19.04.35.13.48.08.13.25.26.5.37.25.12.48.21.68.28a29.24 29.24 0 0 0 1.23.36c.5.13.94.27 1.3.4.35.14.7.31 1.02.52a2.73 2.73 0 0 1 1.27 1.55c.12.35.17.74.17 1.19a3.9 3.9 0 0 1-.25 1.43c-.16.43-.39.78-.67 1.06-.28.27-.62.5-1.01.69-.4.19-.8.32-1.24.4a9.75 9.75 0 0 1-6.52-1.38l1.22-2.44c.06.07.22.18.47.32a6.96 6.96 0 0 0 3.53 1.09c.99 0 1.48-.3 1.48-.9a.9.9 0 0 0-.04-.28.64.64 0 0 0-.14-.23 1.3 1.3 0 0 0-.5-.37 7.4 7.4 0 0 0-1.72-.6 14.18 14.18 0 0 1-1.99-.72c-.4-.19-.73-.42-1-.68a2.36 2.36 0 0 1-.61-.9 3.9 3.9 0 0 1 .17-2.88c.23-.5.56-.92.97-1.24.4-.32.88-.57 1.41-.75a5.54 5.54 0 0 1 1.73-.26c1.4 0 2.86.44 4.36 1.32l-1.23 2.32Zm3.22 8.56V56.1h2.8v12.1h-2.8Zm5.1 0V56.1h4.52c.97 0 1.85.16 2.62.47a5.1 5.1 0 0 1 3.03 3.21c.26.73.39 1.5.39 2.35 0 1.83-.56 3.3-1.66 4.4a5.9 5.9 0 0 1-4.38 1.67h-4.52Zm4.52-9.65h-1.72v7.2h1.72c1 0 1.78-.34 2.35-1 .56-.68.84-1.55.84-2.62a3.8 3.8 0 0 0-.85-2.6 2.93 2.93 0 0 0-2.34-.98ZM99.4 56.1h3.01l4.17 12.1h-2.87l-.94-2.71H99l-.92 2.7h-2.86l4.17-12.09Zm2.91 7.46-1.41-4.65-1.45 4.65h2.86Zm5.45 4.64V56.1h4.52c.97 0 1.85.16 2.62.47a5.1 5.1 0 0 1 3.03 3.21c.26.73.39 1.5.39 2.35 0 1.83-.55 3.3-1.66 4.4a5.9 5.9 0 0 1-4.38 1.67h-4.52Zm4.52-9.65h-1.72v7.2h1.72c1 0 1.78-.34 2.35-1 .56-.68.84-1.55.84-2.62a3.8 3.8 0 0 0-.85-2.6 2.93 2.93 0 0 0-2.34-.98Zm16.19 7.2v2.45h-8.5V56.1h8.35v2.45h-5.56v2.35h4.78v2.27h-4.78v2.57h5.7Zm8.96-6.1a4 4 0 0 0-1.24-.7c-.7-.3-1.35-.46-1.98-.46-1 0-1.5.33-1.5 1 0 .19.04.35.12.48.09.13.26.26.5.37.25.12.48.21.69.28a29.24 29.24 0 0 0 1.23.36c.5.13.93.27 1.29.4.35.14.7.31 1.03.52a2.73 2.73 0 0 1 1.27 1.55c.11.35.17.74.17 1.19a3.9 3.9 0 0 1-.25 1.43c-.17.43-.4.78-.67 1.06-.29.27-.62.5-1.02.69-.4.19-.8.32-1.23.4a9.75 9.75 0 0 1-6.52-1.38l1.22-2.44c.06.07.21.18.46.32s.55.3.9.47a6.96 6.96 0 0 0 2.63.62c1 0 1.48-.3 1.48-.9a.9.9 0 0 0-.04-.28.64.64 0 0 0-.14-.23 1.3 1.3 0 0 0-.5-.37 7.4 7.4 0 0 0-1.71-.6 14.18 14.18 0 0 1-2-.72 4.09 4.09 0 0 1-1-.68 2.36 2.36 0 0 1-.6-.9 3.9 3.9 0 0 1 .17-2.88c.23-.5.55-.92.96-1.24.4-.32.88-.57 1.42-.75a5.54 5.54 0 0 1 1.72-.26 8.6 8.6 0 0 1 4.36 1.32l-1.22 2.32Z"/></g></svg>