<svg width="17" height="16" viewBox="0 0 17 16" fill="none" xmlns="http://www.w3.org/2000/svg">
<path d="M14.3345 10.0425L10.7947 8.00001L14.3345 5.95756C14.534 5.84246 14.6022 5.58777 14.4871 5.38829L13.6532 3.9448C13.5381 3.74558 13.2832 3.67709 13.0837 3.7922L9.54387 5.83465V1.75001C9.54387 1.5198 9.35715 1.33334 9.12695 1.33334H7.45924C7.22903 1.33334 7.04231 1.5198 7.04231 1.75001V5.83491L3.50247 3.79246C3.30299 3.67735 3.04804 3.74584 2.93294 3.94506L2.09908 5.38829C1.98398 5.58751 2.05221 5.84246 2.25169 5.95756L5.79153 8.00001L2.25169 10.0425C2.05221 10.1576 1.98398 10.4125 2.09908 10.6117L2.93294 12.0552C3.04804 12.2544 3.30299 12.3227 3.50247 12.2078L7.04231 10.1654V14.25C7.04231 14.4802 7.22903 14.6667 7.45924 14.6667H9.12695C9.35715 14.6667 9.54387 14.4802 9.54387 14.25V10.1651L13.0837 12.2076C13.2832 12.3227 13.5381 12.2544 13.6532 12.055L14.4871 10.6115C14.6022 10.4123 14.534 10.1576 14.3345 10.0425Z" fill="white"/>
</svg>
